<?xml version="1.0" standalone="no"?>
<!DOCTYPE svg PUBLIC "-//W3C//DTD SVG 20010904//EN"
 "http://www.w3.org/TR/2001/REC-SVG-20010904/DTD/svg10.dtd">
<svg version="1.0" xmlns="http://www.w3.org/2000/svg"
 width="512.000000pt" height="512.000000pt" viewBox="0 0 512.000000 512.000000"
 preserveAspectRatio="xMidYMid meet">
<metadata>
Created by potrace 1.14, written by Peter Selinger 2001-2017
</metadata>
<g transform="translate(0.000000,512.000000) scale(0.100000,-0.100000)"
fill="#000000" stroke="none">
<path d="M2233 4970 c-1 -11 2 -20 7 -20 4 0 7 7 6 15 -3 23 -12 26 -13 5z"/>
<path d="M2272 4985 c4 -4 0 -14 -8 -22 -8 -8 -11 -19 -8 -25 4 -6 -2 -5 -15
1 -11 7 -21 16 -21 22 0 6 -4 7 -10 4 -5 -3 -10 0 -10 7 0 10 -3 9 -11 -2 -7
-11 -12 -12 -15 -3 -4 8 -11 7 -24 -4 -10 -9 -17 -20 -15 -23 2 -4 -2 -7 -8
-7 -7 0 -14 10 -15 21 -1 17 1 18 8 6 6 -9 10 -10 10 -3 0 21 -16 22 -33 2
-10 -11 -22 -17 -28 -14 -5 4 -16 2 -23 -4 -9 -8 -13 -7 -13 3 0 9 9 13 24 11
13 -1 25 1 28 5 2 4 -10 6 -28 5 -48 -4 -49 -4 -42 -14 3 -6 -4 -8 -16 -6 -13
3 -28 0 -34 -5 -8 -7 -12 -5 -12 4 0 9 9 13 23 11 13 -1 21 2 18 6 -3 5 -15 7
-27 5 -12 -3 -26 -5 -30 -5 -5 -1 -6 -5 -2 -10 6 -10 -27 -7 -45 4 -6 3 -10
-1 -10 -9 0 -8 -4 -18 -10 -21 -6 -3 -7 1 -4 9 3 9 2 16 -3 16 -5 0 -10 -14
-11 -31 -1 -18 -6 -37 -9 -43 -10 -16 -11 -76 -1 -70 16 10 8 -9 -9 -22 -15
-12 -15 -13 -2 -8 10 3 19 -1 23 -11 3 -9 2 -13 -3 -10 -5 3 -12 1 -16 -5 -3
-5 -1 -10 6 -10 8 0 8 -4 2 -12 -6 -7 -9 -21 -7 -30 2 -10 6 -26 8 -35 2 -10
-1 -24 -7 -30 -6 -9 -5 -13 4 -13 11 0 11 -2 -1 -10 -13 -9 -13 -10 0 -10 13
0 13 -1 0 -10 -13 -9 -13 -10 0 -10 13 0 13 -1 0 -10 -13 -9 -13 -10 0 -10 13
0 13 -1 0 -10 -8 -5 -10 -10 -4 -10 7 0 15 -7 18 -16 5 -14 4 -15 -9 -4 -13
11 -14 10 -9 -5 6 -14 4 -16 -6 -10 -9 5 -11 4 -6 -4 4 -6 12 -8 18 -5 6 4 6
-2 -1 -15 -9 -16 -9 -21 1 -21 9 0 9 -3 -2 -10 -13 -9 -13 -10 0 -10 13 0 13
-1 0 -10 -13 -9 -13 -10 0 -10 13 0 13 -1 0 -10 -13 -9 -13 -10 0 -10 13 0 13
-1 0 -10 -8 -5 -10 -10 -4 -10 7 0 15 -7 18 -16 5 -14 4 -15 -9 -4 -13 11 -14
10 -9 -5 6 -14 4 -16 -6 -10 -9 5 -11 4 -6 -4 4 -6 11 -9 15 -7 4 3 8 -1 8 -9
0 -8 -4 -12 -8 -9 -4 2 -6 -5 -3 -16 2 -11 6 -29 9 -41 3 -16 1 -18 -9 -10 -9
8 -13 7 -13 -4 0 -8 7 -15 14 -15 9 0 11 -5 6 -12 -13 -22 -11 -62 6 -88 9
-13 11 -21 4 -17 -6 4 -14 3 -18 -3 -3 -5 -1 -10 6 -10 8 0 8 -4 -1 -15 -7 -9
-8 -15 -2 -15 5 0 13 -7 16 -16 5 -13 4 -14 -7 -6 -10 9 -14 8 -14 -3 0 -8 5
-15 10 -15 6 0 7 -3 4 -7 -4 -3 -1 -13 6 -21 8 -11 8 -14 0 -9 -6 4 -14 3 -18
-3 -3 -5 0 -10 7 -10 9 0 9 -3 -2 -10 -13 -9 -13 -10 0 -10 13 0 13 -1 0 -10
-12 -8 -12 -10 5 -11 l20 0 -20 -9 c-13 -6 -15 -9 -5 -9 13 -1 13 -2 0 -11 -8
-5 -10 -10 -4 -10 7 0 15 -7 18 -16 5 -13 3 -14 -7 -6 -10 8 -13 6 -13 -8 0
-10 5 -16 11 -14 5 3 1 -2 -9 -10 -19 -15 -13 -21 19 -17 6 1 1 -6 -9 -14 -14
-11 -16 -15 -5 -15 12 0 12 -2 -1 -10 -10 -6 -11 -10 -2 -10 6 0 12 -5 12 -11
0 -5 -4 -7 -10 -4 -5 3 -10 1 -10 -4 0 -6 6 -11 13 -11 8 0 7 -4 -3 -10 -10
-6 -11 -10 -2 -10 6 0 12 -4 12 -10 0 -5 -8 -7 -17 -4 -17 5 -17 5 0 -6 17
-11 25 -36 8 -25 -5 3 -12 1 -16 -5 -6 -9 7 -14 30 -11 6 1 1 -6 -9 -14 -14
-11 -16 -15 -5 -15 12 0 12 -2 -1 -10 -10 -6 -11 -10 -2 -10 6 0 12 -5 12 -11
0 -5 -4 -7 -10 -4 -5 3 -10 1 -10 -4 0 -6 6 -11 13 -11 8 0 7 -4 -3 -10 -10
-6 -11 -10 -2 -10 6 0 12 -4 12 -10 0 -5 -8 -7 -17 -4 -15 5 -16 4 -3 -5 16
-11 24 -115 8 -105 -4 3 -8 0 -8 -5 0 -6 6 -11 13 -11 8 0 7 -4 -3 -10 -10 -6
-11 -10 -2 -10 6 0 12 -7 12 -16 0 -8 -4 -12 -10 -9 -5 3 -10 1 -10 -4 0 -6 4
-11 8 -11 5 0 9 -7 9 -15 0 -8 -4 -12 -9 -9 -4 3 -8 1 -8 -4 0 -6 8 -13 18
-17 16 -6 16 -7 -2 -21 -12 -8 -15 -14 -7 -14 11 0 11 -3 1 -15 -13 -15 -2
-21 16 -7 5 4 -2 -4 -16 -17 -14 -14 -18 -22 -9 -19 18 7 23 -23 5 -34 -8 -6
-8 -8 0 -8 7 0 15 -7 18 -16 6 -15 4 -15 -11 -3 -11 9 -14 10 -9 2 4 -7 9 -22
11 -34 3 -16 1 -18 -9 -10 -9 8 -13 7 -13 -4 0 -8 7 -15 14 -15 9 0 11 -5 6
-12 -10 -17 -12 -89 -2 -83 4 3 10 -2 13 -11 3 -8 2 -12 -3 -9 -5 3 -12 1 -16
-5 -3 -5 -1 -10 6 -10 8 0 8 -4 -1 -15 -7 -9 -8 -15 -2 -15 5 0 13 -7 16 -16
5 -13 4 -14 -7 -6 -10 9 -14 8 -14 -3 0 -8 4 -15 9 -15 11 0 6 -23 -7 -32 -6
-5 -4 -8 5 -9 10 0 8 -3 -5 -9 -18 -8 -18 -9 5 -9 19 -1 22 -4 11 -10 -8 -5
-16 -17 -17 -25 -1 -9 2 -14 7 -10 5 3 9 0 9 -5 0 -6 -5 -11 -11 -11 -6 0 -3
-7 5 -16 19 -18 21 -31 4 -16 -10 8 -13 -1 -14 -39 0 -27 4 -49 8 -49 13 0 4
-25 -12 -32 -12 -5 -11 -7 3 -7 12 -1 16 -5 10 -13 -10 -18 -12 -58 -1 -52 4
3 8 0 8 -5 0 -6 -6 -11 -12 -11 -9 0 -8 -3 2 -10 12 -7 12 -12 2 -22 -16 -16
-15 -28 4 -28 8 0 12 -5 9 -10 -4 -6 -10 -8 -14 -6 -4 3 -8 -1 -8 -9 0 -8 4
-12 7 -10 9 6 5 -48 -4 -64 -4 -6 -1 -11 6 -11 9 0 9 -3 -2 -10 -13 -9 -13
-10 0 -10 13 0 13 -1 0 -10 -13 -8 -13 -10 -1 -10 11 0 9 -4 -5 -15 -10 -8
-14 -15 -9 -14 23 3 27 -2 14 -18 -12 -15 -12 -16 1 -8 13 8 13 6 1 -8 -11
-14 -11 -18 3 -23 9 -3 13 -11 10 -16 -4 -6 -10 -5 -15 3 -7 10 -8 9 -6 -6 1
-11 6 -26 10 -32 5 -8 4 -13 -2 -13 -6 0 -11 -5 -11 -11 0 -5 3 -8 8 -6 4 3 7
-10 7 -28 1 -29 -2 -32 -15 -22 -10 9 -9 4 4 -17 10 -16 13 -25 7 -22 -6 4
-11 2 -11 -3 0 -6 6 -11 13 -11 8 0 7 -4 -3 -10 -13 -9 -13 -10 0 -11 10 0 8
-3 -5 -9 -11 -5 -14 -9 -7 -9 7 -1 10 -5 7 -11 -3 -5 -2 -10 3 -10 6 0 12 -7
15 -14 4 -10 1 -13 -8 -10 -9 4 -13 -1 -11 -12 2 -10 9 -20 17 -22 11 -3 11
-1 -1 8 -12 9 -12 11 -1 8 8 -2 15 -12 17 -21 1 -9 -2 -14 -8 -11 -6 4 -2 -5
7 -20 14 -20 21 -24 35 -16 26 14 30 13 31 -12 0 -22 1 -22 8 -3 5 11 7 23 4
27 -2 4 4 5 13 1 13 -5 15 -3 9 8 -5 8 -5 11 1 6 5 -5 9 -14 9 -20 0 -5 6 -12
13 -15 8 -2 10 3 6 15 -5 16 -4 16 8 3 14 -17 101 -22 91 -6 -3 5 0 6 8 4 8
-3 13 -10 12 -16 -3 -11 22 -10 33 1 13 12 24 7 25 -10 0 -16 1 -15 8 2 8 19
8 19 19 0 6 -11 12 -15 12 -9 0 5 -5 15 -12 22 -9 9 -9 12 1 12 7 0 9 5 5 13
-4 7 -3 9 2 4 5 -5 9 -14 9 -20 0 -5 6 -12 13 -15 8 -2 10 3 6 15 -5 16 -4 16
10 -1 14 -18 21 -15 17 7 -1 5 3 6 8 3 5 -4 11 -3 14 1 2 5 3 3 1 -3 -1 -6 2
-17 7 -25 7 -12 9 -12 10 1 1 8 1 21 0 28 -2 14 20 12 31 -2 3 -5 5 2 5 16 -1
14 -6 25 -12 23 -5 -1 -7 0 -2 2 4 3 5 9 2 14 -4 5 0 6 7 4 9 -4 14 2 15 15 1
13 -2 18 -10 13 -7 -4 -6 0 2 10 9 12 10 17 2 17 -9 0 -9 5 -1 20 6 11 10 26
9 33 -3 27 1 38 14 31 10 -6 10 -4 0 7 -7 7 -13 21 -13 32 0 11 -4 15 -11 11
-6 -3 -3 6 7 22 18 28 18 29 0 14 -19 -15 -19 -14 -2 17 11 22 13 33 5 33 -9
0 -8 4 0 14 9 11 9 16 0 22 -8 4 -9 3 -5 -4 4 -7 3 -12 -2 -12 -6 0 -9 11 -8
24 0 16 5 21 11 16 7 -6 11 -2 11 9 0 13 -5 17 -16 13 -12 -4 -12 -2 -3 8 6 7
9 19 6 28 -5 11 -3 13 6 7 8 -4 7 2 -3 17 -9 14 -14 27 -11 30 11 11 15 78 4
78 -5 0 -7 5 -4 10 5 8 12 7 23 -2 15 -11 15 -11 5 3 -8 10 -9 19 -3 27 7 9 7
9 -2 2 -17 -14 -34 -12 -20 2 16 16 15 31 0 22 -9 -6 -9 -3 0 9 8 9 11 20 8
26 -10 16 22 6 46 -15 15 -13 18 -14 10 -2 -9 11 -10 18 -2 23 5 3 10 1 10 -4
0 -6 5 -11 11 -11 5 0 8 4 4 9 -3 5 -1 12 4 15 5 4 8 -5 7 -19 -2 -13 1 -22 5
-19 5 3 9 15 9 27 0 17 2 19 9 8 5 -8 7 -21 4 -30 -4 -14 -3 -14 5 -1 6 8 9
17 6 21 -2 4 0 11 6 14 6 4 9 1 8 -6 -2 -6 3 -14 10 -16 8 -3 10 2 6 14 -5 14
-4 15 4 3 6 -8 8 -18 6 -22 -3 -4 -1 -8 5 -8 5 0 11 5 13 12 2 6 14 12 26 13
18 1 21 -2 16 -18 -4 -13 -2 -17 5 -13 6 4 11 15 11 24 0 15 2 15 10 2 6 -10
10 -11 10 -2 0 6 5 12 11 12 5 0 7 -4 4 -10 -3 -5 -1 -10 5 -10 6 0 8 -6 5
-12 -4 -7 3 -2 14 11 16 17 21 19 21 8 0 -21 17 -31 26 -16 4 7 3 9 -3 6 -5
-3 -10 0 -10 8 0 8 4 15 9 15 8 0 12 -15 9 -39 -2 -7 2 -11 6 -8 11 7 10 -50
-1 -60 -5 -5 -6 -2 -1 7 5 8 4 12 0 7 -14 -12 -14 -48 0 -37 7 6 11 0 10 -20
0 -16 -4 -32 -7 -36 -4 -4 -5 4 -3 16 2 12 1 20 -2 16 -15 -14 -10 -87 6 -96
12 -7 12 -9 2 -10 -11 0 -11 -3 0 -17 8 -10 9 -14 2 -10 -6 4 -14 3 -18 -3 -3
-5 -2 -10 4 -10 17 0 18 -34 2 -60 l-15 -25 24 20 c14 11 19 13 13 5 -7 -8
-13 -22 -13 -33 0 -11 -4 -15 -11 -11 -6 3 -3 -6 7 -22 18 -27 18 -28 1 -15
-16 12 -18 12 -15 0 2 -8 12 -19 23 -26 20 -12 19 -12 -2 -13 -13 0 -23 -5
-23 -11 0 -6 6 -9 13 -6 12 4 13 -8 8 -81 -1 -7 -5 -11 -9 -8 -4 2 -8 -4 -8
-14 0 -12 4 -16 11 -10 12 10 14 -44 3 -56 -4 -4 -5 3 -3 15 2 12 1 20 -3 17
-4 -2 -7 -23 -7 -45 0 -28 6 -45 20 -56 20 -15 20 -15 0 -8 -18 6 -19 5 -5
-12 8 -10 10 -16 3 -12 -6 4 -14 3 -18 -3 -3 -5 -2 -10 3 -10 13 0 22 -39 11
-46 -5 -3 -9 -13 -9 -22 0 -14 2 -14 9 -3 7 10 9 7 8 -12 -1 -14 -6 -23 -11
-19 -5 3 -6 -2 -3 -12 4 -10 2 -27 -4 -38 -9 -18 -8 -24 7 -35 10 -7 12 -13 5
-13 -7 0 -9 -5 -4 -12 9 -15 5 -62 -8 -96 -8 -21 -7 -23 8 -18 13 4 11 0 -6
-14 -13 -11 -18 -20 -12 -20 6 0 10 -6 8 -13 -1 -6 4 -11 11 -9 8 1 11 -2 7
-8 -4 -6 -13 -9 -20 -6 -10 4 -11 -2 -5 -26 7 -22 6 -29 -3 -25 -15 6 -17 -45
-2 -55 6 -5 6 -8 -2 -8 -7 0 -13 -5 -13 -11 0 -5 5 -7 12 -3 7 4 8 3 4 -4 -4
-7 -13 -12 -21 -12 -8 0 -17 -4 -20 -10 -3 -5 0 -7 8 -4 8 3 14 -1 14 -10 0
-8 -5 -12 -10 -9 -6 4 -8 0 -4 -10 4 -12 1 -17 -11 -18 -12 0 -13 -2 -4 -6 10
-4 7 -9 -9 -17 -12 -6 -24 -18 -27 -26 -3 -9 2 -7 12 5 8 11 16 15 16 9 0 -15
-25 -36 -33 -27 -6 6 -11 -11 -8 -29 0 -4 -11 -5 -25 -2 -16 3 -23 1 -19 -6 3
-5 -11 0 -31 12 -21 12 -34 17 -30 10 11 -17 -4 -15 -28 5 -12 10 -15 11 -8 3
6 -8 12 -19 12 -25 0 -5 -5 -2 -11 8 -6 9 -15 15 -21 11 -6 -4 -6 2 1 15 9 17
9 21 -1 19 -7 -2 -12 3 -10 10 1 8 -2 11 -8 7 -6 -4 -7 -12 -3 -19 4 -7 -1 -1
-13 12 -14 15 -20 36 -20 61 1 32 -2 38 -16 36 -10 -2 -18 0 -18 6 0 9 15 13
34 10 5 -1 4 4 -2 12 -7 8 -8 18 -4 22 4 5 1 5 -6 1 -7 -4 -9 -13 -5 -19 4 -7
-1 -6 -10 2 -16 13 -16 15 -1 32 14 16 14 18 -5 29 -12 6 -19 15 -16 20 3 5 1
20 -5 32 -10 21 -10 21 3 6 21 -27 30 -22 11 7 -8 13 -12 30 -8 36 4 8 3 9 -4
5 -11 -7 -17 6 -13 27 1 5 -3 6 -9 2 -6 -3 -7 -11 -4 -17 5 -7 2 -8 -5 -4 -7
5 -10 14 -7 22 3 7 0 16 -6 20 -6 4 -8 3 -5 -2 3 -6 2 -16 -4 -24 -6 -10 -9
-11 -9 -2 0 6 -4 12 -10 12 -5 0 -7 -7 -4 -15 4 -11 2 -13 -9 -9 -9 3 -14 14
-12 26 4 16 2 18 -10 8 -8 -7 -12 -16 -9 -21 3 -5 0 -9 -5 -9 -6 0 -11 6 -11
13 0 9 -2 9 -8 -1 -11 -16 -62 -12 -62 6 0 9 5 10 19 2 11 -5 23 -10 28 -10 4
1 -3 7 -17 14 -29 16 -40 12 -40 -14 0 -26 -25 -31 -48 -9 -25 22 -36 25 -29
5 4 -9 -2 -12 -19 -10 -13 1 -24 -3 -25 -9 0 -7 -7 2 -15 20 -14 34 -44 37
-44 5 0 -13 3 -12 15 4 12 16 14 17 15 3 0 -9 -6 -19 -12 -21 -18 -7 -39 2
-32 13 3 5 2 9 -3 8 -21 -4 -34 2 -27 13 4 7 3 8 -4 4 -7 -4 -12 -14 -12 -22
0 -8 -5 -12 -10 -9 -6 4 -7 11 -4 17 5 7 2 8 -7 2 -8 -5 -17 -9 -21 -9 -3 0
-10 -3 -14 -7 -3 -4 3 -6 15 -3 11 2 21 0 21 -6 0 -8 -13 -12 -30 -11 -12 1
-10 -61 2 -77 10 -13 10 -14 -2 -4 -22 20 -31 15 -18 -8 10 -17 10 -23 1 -26
-10 -4 -10 -8 1 -18 10 -10 11 -25 6 -54 -4 -23 -3 -41 1 -41 5 0 9 -4 9 -10
0 -5 -8 -6 -17 -3 -15 6 -16 5 -3 -9 8 -9 19 -14 24 -11 4 3 1 -6 -9 -20 -10
-16 -12 -27 -6 -31 6 -4 8 -13 4 -21 -3 -10 1 -15 13 -16 18 0 17 -1 -1 -9
-11 -5 -14 -9 -7 -9 6 -1 12 -14 12 -29 0 -15 6 -34 13 -41 10 -12 9 -13 -7
-7 -15 5 -17 4 -8 -7 7 -8 8 -18 4 -22 -4 -5 -1 -5 6 -1 13 8 16 -2 12 -43 -1
-16 2 -21 11 -16 7 5 10 4 5 -3 -3 -5 -3 -12 1 -15 5 -2 2 -2 -4 -1 -7 2 -13
-1 -13 -6 0 -6 5 -10 11 -10 8 0 8 -4 0 -14 -9 -10 -9 -16 -1 -21 6 -4 9 -14
5 -24 -5 -12 -4 -13 6 -4 9 9 9 15 0 26 -9 11 -9 16 1 20 10 3 14 -6 15 -32 0
-20 4 -45 9 -55 5 -14 4 -17 -4 -12 -8 5 -9 1 -3 -16 4 -13 14 -23 21 -23 7 0
15 -7 17 -15 4 -13 3 -13 -6 0 -9 13 -11 13 -11 -2 0 -10 5 -18 10 -18 6 0 10
-7 10 -16 0 -14 -2 -15 -17 -3 -15 11 -14 10 1 -9 20 -23 32 -30 21 -12 -3 5
-4 10 -1 10 2 0 11 -14 20 -30 8 -17 10 -28 5 -25 -5 4 -9 -1 -9 -10 0 -10 5
-13 13 -9 7 5 6 0 -3 -11 -8 -10 -10 -16 -3 -12 6 4 14 3 18 -3 4 -6 11 -7 17
-4 7 4 8 2 4 -5 -4 -6 -12 -9 -17 -6 -5 4 -9 1 -9 -4 0 -6 6 -11 14 -11 22 0
29 -19 14 -37 -11 -14 -10 -15 10 -8 22 6 23 5 12 -15 -7 -12 -8 -20 -2 -16 5
3 15 -7 22 -24 7 -17 21 -30 33 -32 16 -2 21 -9 19 -26 -2 -13 3 -25 12 -28 9
-3 13 -11 9 -18 -3 -6 -1 -6 8 1 16 16 29 17 29 2 0 -5 -4 -7 -10 -4 -5 3 -10
-1 -10 -10 0 -9 4 -13 10 -10 6 3 10 1 10 -5 0 -6 4 -9 9 -5 9 5 27 -32 23
-48 -1 -5 1 -6 6 -3 4 2 24 -10 44 -29 20 -18 39 -30 42 -27 3 3 -2 11 -12 18
-15 12 -15 13 8 10 17 -2 24 -9 22 -21 -3 -13 1 -15 17 -10 13 4 21 2 21 -5 0
-6 -5 -8 -12 -4 -7 4 -8 3 -4 -5 6 -9 11 -9 22 0 7 6 11 15 8 20 -3 5 3 6 12
2 11 -4 13 -8 6 -11 -7 -2 -12 -11 -11 -20 0 -10 3 -12 5 -5 3 7 12 9 20 6 12
-4 12 -8 2 -22 -10 -13 -9 -13 8 1 24 21 38 23 28 6 -6 -9 -3 -9 9 0 14 12 19
12 33 -2 8 -9 20 -14 25 -11 5 4 9 2 9 -2 0 -5 11 -9 25 -9 18 0 21 3 14 12
-7 8 -6 15 2 20 8 4 9 3 5 -4 -4 -7 -2 -13 3 -13 6 -1 17 -2 24 -3 6 -1 11 -8
9 -15 -1 -7 2 -10 8 -6 15 9 -8 37 -24 28 -6 -3 -7 -2 -3 2 10 12 37 15 37 5
0 -5 8 -7 18 -5 9 1 24 -1 34 -6 13 -7 15 -5 11 10 -3 10 0 22 7 26 7 4 10 2
8 -6 -1 -8 2 -15 7 -16 6 -2 11 6 11 17 2 33 3 35 16 22 8 -8 15 -8 24 -1 8 7
14 7 19 -1 3 -5 1 -10 -4 -10 -6 0 -11 -5 -11 -11 0 -8 5 -8 15 1 8 7 12 17 8
23 -4 6 0 8 10 4 12 -4 15 -1 12 15 -3 11 -2 18 2 14 4 -3 15 2 25 11 17 15
28 19 75 25 7 1 10 5 7 10 -3 5 -10 6 -15 3 -5 -4 -9 -1 -9 4 0 6 9 11 20 11
12 0 20 7 20 18 0 13 -2 14 -9 3 -5 -8 -11 -9 -15 -3 -8 14 18 22 35 11 8 -5
19 -9 24 -9 6 0 4 4 -3 9 -11 6 -8 13 12 28 14 11 23 23 19 26 -3 3 -14 -4
-25 -16 -18 -21 -19 -21 -9 -1 5 11 17 26 25 33 9 8 14 17 11 21 -2 4 5 7 17
6 12 0 23 5 25 12 3 6 0 12 -7 12 -6 0 -8 -5 -4 -12 5 -7 3 -8 -5 -3 -9 5 -7
12 8 27 12 10 19 23 16 27 -2 5 3 15 12 22 14 12 16 12 8 -1 -6 -12 -6 -13 6
-2 12 11 12 14 -1 22 -11 7 -11 10 -2 10 7 0 10 4 7 10 -3 5 0 7 8 4 8 -3 18
0 23 7 4 8 3 10 -4 5 -8 -5 -11 0 -8 16 3 13 5 26 5 31 1 4 6 7 12 7 8 0 7 -6
-2 -18 -11 -14 -10 -13 9 2 22 19 30 32 13 22 -5 -3 -12 1 -15 10 -4 11 -2 15
7 11 8 -3 14 1 14 9 0 7 -5 11 -11 8 -6 -3 0 4 13 15 13 12 20 25 16 29 -4 4
-10 1 -12 -5 -3 -7 -10 -13 -16 -13 -7 1 -1 10 12 20 14 12 18 20 10 20 -11 0
-11 2 1 9 8 6 18 7 22 5 4 -3 5 2 1 11 -5 13 -7 14 -14 3 -6 -9 -9 -9 -9 -1 0
6 7 19 16 27 8 9 12 20 9 26 -3 5 2 10 12 11 16 0 16 1 -2 9 -11 5 -14 9 -6 9
10 1 11 4 2 15 -9 10 -9 16 -1 21 6 4 9 13 6 21 -3 7 0 16 6 20 7 4 8 3 4 -4
-4 -7 -2 -10 6 -7 8 3 14 14 14 25 0 14 -3 16 -13 8 -18 -15 -16 -3 3 16 8 9
11 16 5 16 -16 0 -5 53 14 67 15 10 14 12 -6 18 -20 7 -20 8 -5 17 9 5 13 14
10 20 -4 6 0 14 7 19 12 7 12 9 0 9 -11 0 -9 4 5 15 10 8 15 15 9 14 -26 -3
-28 3 -5 17 14 8 17 13 7 10 -15 -5 -16 -2 -7 14 5 10 6 21 2 24 -5 3 -7 19
-4 35 2 17 8 28 13 25 5 -3 9 0 9 5 0 6 -6 11 -12 11 -9 0 -8 4 2 10 12 8 12
10 -5 11 l-20 0 20 9 c14 6 15 9 5 10 -10 1 -9 4 5 10 16 7 16 9 4 9 -11 1
-16 9 -15 25 0 13 4 22 9 19 4 -2 7 3 7 12 0 9 -4 14 -8 11 -17 -10 -9 29 9
50 15 16 16 21 5 21 -8 0 -13 -4 -10 -9 3 -4 1 -8 -4 -8 -6 0 -9 11 -8 24 0
15 5 21 11 16 6 -5 10 1 10 15 0 13 -3 21 -7 19 -4 -3 -5 9 -1 27 4 20 2 30
-4 26 -5 -3 -10 0 -10 7 0 8 5 12 12 10 6 -3 11 6 12 18 0 13 -1 17 -4 11 -3
-7 -8 -13 -12 -13 -10 0 -6 49 5 58 4 4 4 -2 0 -13 -5 -15 -4 -17 4 -9 9 9 9
17 0 33 -13 25 -20 92 -8 85 8 -5 12 11 9 30 -1 4 3 14 8 20 8 9 7 13 -4 13
-8 0 -11 -5 -8 -10 3 -6 1 -7 -5 -3 -6 4 -9 13 -6 21 4 8 10 13 14 10 13 -8 6
21 -9 39 -12 14 -11 16 5 9 18 -7 18 -6 2 19 -17 25 -16 27 5 41 l22 16 -22
-4 c-16 -3 -20 0 -16 11 3 7 9 11 14 8 5 -3 6 2 3 10 -3 9 -9 14 -13 11 -4 -2
-8 2 -8 9 0 9 7 12 16 8 12 -4 12 0 -3 17 -20 22 -20 22 0 14 18 -7 18 -6 2
19 -17 25 -16 27 5 41 l22 16 -22 -4 c-16 -3 -20 0 -16 11 3 7 9 11 14 8 5 -3
6 2 3 10 -3 9 -9 14 -13 11 -4 -2 -8 2 -8 9 0 9 7 12 16 8 12 -4 12 0 -3 17
-20 22 -20 22 0 14 18 -7 18 -6 2 19 -17 25 -16 27 5 41 l22 16 -22 -4 c-16
-3 -20 0 -16 11 3 7 9 11 14 8 5 -3 6 2 3 10 -3 9 -9 14 -13 11 -4 -2 -8 2 -8
9 0 9 7 12 16 8 12 -4 12 0 -3 17 -20 22 -20 22 0 14 18 -7 18 -6 2 19 -17 25
-16 27 5 41 l22 16 -22 -4 c-16 -3 -20 0 -16 11 3 7 9 11 14 8 5 -3 6 2 3 10
-3 9 -9 14 -13 11 -4 -2 -8 2 -8 9 0 9 7 12 16 8 12 -4 12 0 -3 17 -20 22 -20
22 0 14 18 -7 18 -6 2 19 -17 25 -16 27 5 41 l22 16 -22 -4 c-16 -3 -20 0 -16
11 3 7 9 11 14 8 5 -3 6 2 3 10 -3 9 -9 14 -13 11 -4 -2 -8 2 -8 9 0 9 7 12
16 8 13 -4 12 -1 -3 16 -11 12 -16 25 -13 29 4 3 7 1 7 -5 0 -7 5 -12 11 -12
7 0 5 10 -5 25 -15 23 -15 24 1 18 10 -3 15 -3 11 2 -4 4 -3 13 2 20 7 8 5 12
-5 12 -8 0 -11 -5 -8 -10 3 -6 1 -7 -5 -3 -15 9 -3 36 17 36 13 0 14 2 1 9 -8
6 -17 8 -20 6 -4 -2 -7 2 -7 9 0 9 7 12 16 8 13 -4 12 -1 -3 16 -11 12 -16 25
-13 29 4 3 7 1 7 -5 0 -7 5 -12 11 -12 7 0 5 10 -5 25 -15 23 -15 24 1 18 10
-3 15 -3 11 2 -4 4 -3 13 2 20 7 8 5 12 -5 12 -8 0 -11 -5 -8 -10 3 -6 1 -7
-5 -3 -15 9 -3 36 17 36 13 0 14 2 1 9 -8 6 -17 8 -20 6 -4 -2 -7 2 -7 9 0 9
7 12 16 8 13 -4 12 -1 -3 16 -11 12 -16 25 -13 29 4 3 7 1 7 -5 0 -7 5 -12 11
-12 7 0 5 10 -5 25 -15 23 -15 24 1 18 10 -3 15 -3 11 2 -4 4 -3 13 2 20 7 8
5 12 -5 12 -8 0 -11 -5 -8 -10 3 -6 1 -7 -5 -3 -15 9 -3 36 17 36 13 0 14 2 1
9 -8 6 -17 8 -20 6 -4 -2 -7 2 -7 10 0 8 4 12 9 9 13 -8 9 31 -4 45 -11 10
-10 11 3 6 10 -4 20 -1 25 6 4 7 3 10 -2 6 -6 -3 -16 -2 -24 4 -13 8 -13 9 0
9 10 0 11 3 3 11 -13 13 -5 42 9 33 6 -4 5 3 -1 15 -10 18 -9 20 6 14 12 -4
10 1 -7 16 -14 12 -19 20 -12 16 7 -3 12 0 12 9 0 8 6 17 13 19 9 4 9 6 0 6
-7 1 -13 8 -13 16 0 8 -5 15 -11 15 -5 0 -7 5 -4 10 5 8 12 7 22 -2 15 -12 15
-11 3 9 -8 12 -17 20 -20 18 -3 -2 -6 5 -6 15 0 12 4 16 11 10 6 -5 10 0 10
15 0 15 -4 20 -10 15 -7 -6 -11 -2 -12 11 -1 15 2 19 14 15 12 -5 13 -4 5 7
-7 8 -9 17 -5 20 3 4 1 7 -6 7 -7 0 -9 5 -6 10 4 6 12 8 18 4 7 -3 3 2 -7 10
-11 9 -14 16 -8 16 7 0 12 5 12 11 0 5 -6 7 -12 3 -7 -4 -10 -4 -6 1 4 4 3 14
-4 22 -6 7 -8 16 -4 20 3 3 6 1 6 -6 0 -7 5 -9 12 -5 7 5 8 3 3 -6 -5 -9 -4
-11 4 -6 6 4 8 13 4 19 -4 7 -8 17 -9 23 -1 6 -5 22 -9 35 -4 16 -3 20 3 11 7
-11 10 -9 15 7 3 11 0 19 -5 18 -6 -1 -13 4 -16 12 -3 10 0 12 13 7 14 -5 16
-4 7 7 -7 8 -9 17 -5 20 3 4 1 7 -6 7 -7 0 -9 5 -6 10 4 6 12 8 18 4 7 -3 3 2
-7 10 -11 9 -14 16 -8 16 7 0 12 5 12 11 0 5 -6 7 -12 3 -7 -4 -10 -4 -6 1 4
4 3 14 -4 22 -6 7 -8 16 -4 20 3 3 6 1 6 -6 0 -7 5 -9 12 -5 7 5 8 3 3 -6 -5
-9 -4 -11 4 -6 6 4 8 13 4 19 -4 7 -8 17 -9 23 -1 6 -5 22 -9 35 -4 16 -3 20
3 11 7 -11 10 -9 15 7 3 11 0 19 -5 18 -6 -1 -13 4 -16 12 -3 10 0 12 13 7 14
-5 16 -4 7 7 -7 8 -9 17 -5 20 3 4 1 7 -6 7 -7 0 -9 5 -6 10 4 6 12 8 18 4 7
-3 3 2 -7 10 -11 9 -14 16 -8 16 7 0 12 5 12 11 0 5 -6 7 -12 3 -7 -4 -10 -4
-6 1 4 4 3 14 -4 22 -6 7 -8 16 -4 20 3 3 6 1 6 -6 0 -7 5 -9 12 -5 7 5 8 3 3
-6 -5 -9 -4 -11 4 -6 6 4 8 13 4 19 -4 7 -8 17 -9 23 -1 6 -5 22 -9 35 -4 16
-3 20 3 11 7 -11 10 -9 15 7 3 11 0 19 -5 18 -6 -1 -13 4 -16 12 -3 10 0 12
14 7 15 -6 16 -4 7 5 -6 6 -9 18 -6 25 3 8 0 14 -6 14 -6 0 -11 5 -11 11 0 5
4 7 10 4 7 -4 7 2 0 19 -6 17 -6 27 1 32 8 4 7 9 -2 15 -12 7 -11 9 1 10 8 1
19 1 24 0 5 -1 4 5 -4 13 -14 18 -25 22 -15 6 3 -5 2 -10 -3 -10 -5 0 -8 24
-8 54 1 30 4 52 9 49 4 -2 7 1 7 6 0 6 -5 11 -11 11 -8 0 -7 6 2 17 8 9 9 14
3 10 -6 -3 -11 0 -11 8 0 8 4 12 8 10 4 -3 9 2 12 9 7 17 -16 39 -28 28 -5 -4
-5 -1 -1 6 4 7 11 10 16 7 5 -3 12 -1 15 5 4 6 1 9 -6 8 -6 -2 -12 7 -14 19
-1 12 2 20 7 17 4 -3 8 0 8 5 0 6 -4 11 -8 11 -5 0 -9 7 -9 15 0 8 4 12 9 9
16 -10 8 9 -9 22 -15 12 -16 13 -2 8 10 -3 20 0 24 6 3 6 1 9 -6 8 -9 -2 -13
11 -14 39 0 23 3 39 7 37 5 -3 8 0 8 5 0 6 -4 11 -9 11 -5 0 -8 8 -6 18 2 9 4
21 4 25 1 5 6 5 13 1 7 -4 8 -3 4 5 -5 8 -12 9 -20 2 -9 -7 -11 -1 -11 25 1
19 -3 38 -8 41 -6 3 -8 2 -4 -3 3 -5 -1 -20 -10 -34 -8 -14 -12 -17 -9 -8 3 9
-2 19 -10 22 -9 3 -12 1 -9 -4 3 -6 2 -10 -4 -10 -5 0 -15 8 -20 18 -6 10 -11
12 -11 4 0 -7 -4 -11 -9 -8 -5 4 -11 1 -13 -6 -3 -8 -11 -9 -24 -3 -26 12 -55
14 -48 4 2 -4 12 -5 22 -2 9 3 14 3 11 -1 -11 -12 -69 -16 -69 -5 0 6 5 7 10
4 6 -3 10 -1 10 5 0 7 -6 10 -14 7 -7 -3 -19 0 -26 6 -10 10 -10 8 -2 -8 9
-18 7 -20 -24 -21 -19 0 -34 3 -34 8 0 5 5 6 10 3 6 -3 10 -1 10 5 0 7 -7 9
-16 6 -9 -3 -18 -6 -20 -6 -3 0 -3 -4 0 -9 4 -5 -3 -7 -13 -4 -11 3 -22 12
-24 22 -3 11 -5 9 -6 -6 0 -13 -5 -23 -11 -23 -5 0 -7 8 -3 18 5 14 3 15 -8 5
-16 -16 -43 -17 -33 -2 3 6 -5 4 -19 -5 -22 -15 -26 -15 -40 -1 -21 20 -27 19
-22 -5 2 -12 0 -18 -6 -15 -5 4 -7 10 -4 15 3 5 1 11 -5 15 -5 3 -10 -1 -10
-9 0 -9 -4 -16 -9 -16 -5 0 -7 10 -4 23 5 22 5 22 -10 2 -8 -11 -14 -22 -12
-26 2 -3 -2 -6 -10 -6 -8 0 -13 5 -12 11 1 6 -4 10 -10 9 -7 -2 -19 -4 -25 -5
-7 -2 -17 -7 -21 -13 -5 -5 -6 -1 -3 11 5 14 2 21 -9 21 -10 0 -13 -8 -11 -24
3 -12 0 -26 -6 -29 -7 -4 -8 -2 -4 4 4 7 2 12 -3 12 -17 0 -13 -28 5 -38 15
-8 15 -10 0 -15 -11 -5 -15 -3 -10 5 4 7 3 8 -5 4 -8 -6 -9 -12 -2 -20 6 -7 8
-16 4 -19 -3 -4 -2 -7 3 -7 5 0 10 -12 11 -27 0 -15 -2 -21 -7 -14 -5 9 -9 7
-13 -8 -3 -11 0 -19 5 -18 6 1 13 -4 16 -12 3 -10 0 -12 -14 -7 -15 6 -16 4
-7 -5 6 -6 9 -18 6 -27 -5 -11 -3 -13 8 -7 12 7 12 6 1 -7 -10 -13 -10 -17 0
-21 10 -4 10 -6 1 -6 -7 -1 -13 -6 -13 -12 0 -5 5 -7 12 -3 6 4 8 3 4 -4 -3
-5 -1 -12 6 -14 7 -3 5 -7 -6 -11 -11 -5 -15 -3 -10 5 4 7 3 8 -5 4 -8 -6 -9
-12 -2 -20 6 -7 8 -16 4 -19 -3 -4 -2 -7 3 -7 5 0 10 -12 11 -27 0 -15 -2 -21
-7 -14 -5 9 -9 7 -13 -8 -3 -11 0 -19 5 -18 6 1 13 -4 16 -12 3 -10 0 -12 -14
-7 -15 6 -16 4 -7 -5 6 -6 9 -18 6 -27 -5 -11 -3 -13 8 -7 12 7 12 6 1 -7 -10
-13 -10 -17 0 -21 10 -4 10 -6 1 -6 -7 -1 -13 -6 -13 -12 0 -5 5 -7 12 -3 6 4
8 3 4 -4 -3 -5 -1 -12 6 -14 7 -3 5 -7 -6 -11 -9 -4 -15 -3 -12 1 3 5 -1 9 -9
9 -13 0 -13 -3 0 -17 8 -9 12 -20 8 -23 -3 -4 -2 -7 3 -7 5 0 10 -12 11 -27 0
-15 -2 -21 -7 -14 -5 9 -9 7 -13 -8 -3 -11 0 -19 5 -18 6 1 13 -4 16 -12 3
-10 0 -12 -14 -7 -15 6 -16 4 -7 -5 6 -6 9 -18 6 -27 -5 -11 -3 -13 7 -7 10 6
11 4 4 -6 -14 -22 -12 -58 3 -63 8 -3 12 -9 9 -14 -2 -4 4 -8 14 -8 10 0 18 5
17 11 -1 5 13 11 31 11 22 2 30 -1 26 -9 -5 -8 -2 -8 7 1 20 18 33 15 18 -5
-12 -16 -11 -16 8 0 17 15 26 16 40 8 10 -6 12 -11 6 -11 -7 0 -13 -9 -13 -19
0 -11 -3 -21 -7 -24 -5 -2 -2 -2 5 0 9 2 11 -3 7 -17 -4 -13 -2 -20 6 -20 8 0
6 -5 -5 -13 -19 -14 -12 -52 8 -40 6 4 3 -5 -6 -19 -16 -24 -16 -28 -2 -42 9
-9 11 -16 4 -16 -6 0 -8 -5 -4 -12 5 -8 2 -8 -10 1 -15 12 -17 12 -14 0 2 -8
8 -17 13 -21 6 -5 6 -8 -2 -8 -7 0 -17 8 -22 18 -8 14 -10 14 -11 2 0 -9 -8
-16 -19 -16 -12 0 -17 5 -13 14 4 12 1 12 -18 0 -18 -10 -24 -10 -27 0 -3 6
-9 12 -14 12 -6 0 -7 -4 -4 -10 3 -5 -1 -10 -10 -10 -9 0 -13 -5 -9 -11 5 -8
1 -8 -13 0 -11 6 -23 7 -27 3 -4 -3 -4 2 0 12 6 16 5 17 -14 5 -17 -11 -23
-10 -38 2 -10 8 -15 9 -11 2 4 -6 1 -13 -5 -16 -19 -6 -50 12 -42 25 5 7 2 8
-5 4 -7 -5 -10 -13 -8 -20 3 -6 -6 -12 -20 -12 -21 -2 -22 -1 -7 10 13 10 14
15 4 21 -9 5 -11 4 -6 -3 4 -7 2 -12 -3 -12 -15 0 -14 33 2 50 6 8 1 6 -12 -5
l-24 -20 12 22 c14 28 16 75 1 53 -5 -8 -10 -10 -10 -5 0 6 5 16 12 23 9 9 9
12 -1 12 -7 0 -9 5 -6 10 5 8 12 7 22 -2 15 -12 15 -11 3 9 -8 12 -18 19 -23
16 -5 -3 -1 7 9 23 18 28 18 29 0 14 -18 -14 -19 -14 -7 9 17 31 21 70 8 78
-6 3 -7 1 -3 -5 4 -7 3 -12 -2 -12 -6 0 -9 11 -8 24 0 16 5 21 11 16 7 -6 11
-2 11 9 0 13 -5 17 -16 13 -12 -4 -12 -2 -3 8 6 7 9 19 6 28 -5 11 -3 13 8 7
12 -7 12 -6 1 7 -10 13 -10 17 0 21 8 4 7 6 -4 6 -15 1 -16 5 -8 27 13 33 13
37 -2 28 -8 -5 -8 -1 1 10 9 10 11 20 5 24 -5 4 -10 18 -11 32 l-3 25 16 -27
c20 -37 23 -35 10 6 -6 19 -15 32 -21 28 -5 -3 -4 2 4 11 11 14 11 17 0 17 -9
0 -10 3 -4 8 21 15 23 77 3 67 -7 -4 -2 4 12 16 15 13 18 20 8 16 -10 -3 -19
0 -22 9 -8 21 -8 24 5 24 5 0 7 -5 3 -12 -4 -6 -3 -8 3 -5 6 4 8 18 5 33 -3
19 -7 22 -13 12 -18 -27 -8 3 12 39 11 21 15 32 8 26 -7 -7 -17 -13 -23 -13
-6 0 -5 5 1 11 6 6 9 18 6 27 -5 11 -3 13 8 7 11 -7 12 -6 3 6 -15 19 -15 71
0 62 7 -4 7 -2 -1 7 -6 7 -9 19 -5 28 4 12 1 14 -13 8 -18 -7 -18 -6 -1 13 17
19 17 19 -3 14 -13 -3 -21 -1 -21 6 0 7 4 10 9 6 5 -3 13 0 17 7 4 7 3 10 -1
5 -5 -4 -17 1 -27 10 -15 13 -18 14 -15 2 2 -8 2 -11 0 -6 -3 4 -9 4 -15 1 -6
-4 -6 2 1 14 8 16 8 23 -1 28 -7 4 -10 4 -6 -1z m-102 -35 c0 -5 -5 -10 -11
-10 -5 0 -7 5 -4 10 3 6 8 10 11 10 2 0 4 -4 4 -10z m24 -2 c-5 -8 -1 -9 12
-4 14 5 16 4 7 -5 -13 -13 -37 -3 -28 12 4 5 8 9 11 9 3 0 2 -5 -2 -12z m936
2 c0 -5 -5 -10 -11 -10 -5 0 -7 5 -4 10 3 6 8 10 11 10 2 0 4 -4 4 -10z
m-1275 -89 c3 -5 2 -12 -3 -15 -5 -3 -9 1 -9 9 0 17 3 19 12 6z m705 -675 c-1
-5 4 -13 12 -18 11 -8 11 -9 0 -6 -8 2 -13 7 -12 12 1 5 -4 13 -12 18 -11 8
-11 9 0 6 8 -2 13 -7 12 -12z m-210 -20 c0 -3 -4 -8 -10 -11 -5 -3 -10 -1 -10
4 0 6 5 11 10 11 6 0 10 -2 10 -4z m380 -120 c0 -3 -4 -8 -10 -11 -5 -3 -10
-1 -10 4 0 6 5 11 10 11 6 0 10 -2 10 -4z m-876 -1352 c3 -8 2 -12 -4 -9 -6 3
-10 10 -10 16 0 14 7 11 14 -7z m876 -320 c0 -2 -7 -4 -15 -4 -8 0 -15 4 -15
10 0 5 7 7 15 4 8 -4 15 -8 15 -10z m-380 -248 c0 -3 -4 -8 -10 -11 -5 -3 -10
-1 -10 4 0 6 5 11 10 11 6 0 10 -2 10 -4z m-455 -205 c3 -5 2 -12 -3 -15 -5
-3 -9 1 -9 9 0 17 3 19 12 6z m149 -12 c-3 -5 -10 -7 -15 -3 -5 3 -7 10 -3 15
3 5 10 7 15 3 5 -3 7 -10 3 -15z m46 17 c0 -2 -8 -10 -17 -17 -16 -13 -17 -12
-4 4 13 16 21 21 21 13z m58 -22 c-14 -14 -16 -14 -21 0 -4 10 -1 13 9 9 7 -3
14 1 14 8 0 7 3 9 7 5 4 -3 0 -13 -9 -22z m567 -4 c3 -5 1 -10 -4 -10 -6 0
-11 5 -11 10 0 6 2 10 4 10 3 0 8 -4 11 -10z m2 -235 c0 -8 -4 -15 -9 -15 -10
0 -11 14 -1 23 9 10 10 9 10 -8z m-26 -318 c-10 -9 -11 -8 -5 6 3 10 9 15 12
12 3 -3 0 -11 -7 -18z m-170 -224 c13 -16 12 -17 -3 -4 -17 13 -22 21 -14 21
2 0 10 -8 17 -17z m-31 -3 c0 -5 -2 -10 -4 -10 -3 0 -8 5 -11 10 -3 6 -1 10 4
10 6 0 11 -4 11 -10z m-426 -646 c3 -8 2 -12 -4 -9 -6 3 -10 10 -10 16 0 14 7
11 14 -7z m162 -173 c-3 -5 1 -12 10 -15 9 -4 14 -9 11 -13 -8 -7 -37 15 -37
28 0 5 5 9 11 9 5 0 8 -4 5 -9z m414 -97 c0 -2 -9 0 -20 6 -11 6 -20 13 -20
16 0 2 9 0 20 -6 11 -6 20 -13 20 -16z m-127 -4 c4 -16 2 -18 -13 -10 -9 5
-20 7 -23 4 -3 -3 -8 -1 -11 5 -4 6 2 8 14 6 11 -2 20 0 20 6 0 16 7 10 13
-11z"/>
<path d="M1890 4976 c0 -2 8 -10 18 -17 15 -13 16 -12 3 4 -13 16 -21 21 -21
13z"/>
<path d="M2593 4965 c0 -8 4 -12 9 -9 5 3 6 10 3 15 -9 13 -12 11 -12 -6z"/>
<path d="M2641 4964 c0 -11 3 -14 6 -6 3 7 2 16 -1 19 -3 4 -6 -2 -5 -13z"/>
<path d="M2760 4971 c0 -7 -5 -9 -12 -5 -7 5 -8 3 -3 -5 5 -9 10 -10 18 -2 6
6 8 14 4 18 -4 3 -7 1 -7 -6z"/>
<path d="M2875 4970 c-3 -6 1 -7 9 -4 18 7 21 14 7 14 -6 0 -13 -4 -16 -10z"/>
<path d="M3225 4811 c-3 -5 -2 -12 3 -15 5 -3 9 1 9 9 0 17 -3 19 -12 6z"/>
<path d="M642 4174 c-7 -8 -17 -12 -23 -9 -5 4 -9 2 -9 -4 0 -5 9 -9 20 -8 11
1 20 5 20 10 0 4 4 5 10 2 6 -3 7 1 4 9 -7 19 -6 19 -22 0z"/>
<path d="M719 4181 c-1 -3 -1 -9 0 -13 0 -4 -6 -5 -14 -2 -8 3 -27 -3 -43 -15
-26 -18 -31 -19 -50 -5 -13 9 -23 11 -27 4 -4 -6 -10 -8 -14 -5 -5 2 -7 -7 -5
-22 2 -17 -1 -22 -8 -15 -6 6 -21 7 -38 2 -16 -5 -32 -5 -36 -2 -4 4 -4 1 0
-6 5 -7 15 -11 25 -7 12 5 13 4 4 -6 -9 -9 -18 -8 -40 6 l-28 18 25 -28 25
-28 -25 13 c-22 12 -24 12 -12 -2 10 -13 9 -18 -4 -29 -13 -11 -17 -10 -25 2
-6 10 -9 11 -9 1 0 -7 -5 -10 -12 -6 -7 5 -8 3 -2 -7 12 -20 14 -40 3 -33 -5
3 -7 10 -4 15 4 5 1 9 -6 9 -6 0 -9 -8 -6 -19 3 -14 1 -18 -9 -14 -8 3 -11 10
-7 16 3 6 1 7 -6 3 -6 -4 -9 -11 -6 -16 3 -4 2 -10 -2 -13 -5 -2 -3 -2 4 -1 7
2 10 -3 6 -12 -3 -10 -13 -14 -25 -10 -11 2 -17 2 -14 -1 9 -10 -14 -44 -26
-37 -6 4 -8 3 -5 -3 8 -12 -17 -36 -26 -26 -4 3 -7 2 -7 -4 0 -6 7 -14 16 -17
10 -4 13 -2 8 6 -5 7 -3 8 5 3 16 -9 2 -24 -29 -30 -30 -6 -34 -11 -15 -19 11
-4 14 -2 9 6 -4 7 -3 8 4 4 17 -10 3 -36 -16 -28 -14 5 -15 3 -4 -10 10 -12 9
-18 -3 -28 -11 -9 -13 -15 -5 -20 8 -5 6 -9 -5 -13 -9 -4 -13 -3 -10 2 3 5 0
13 -7 17 -7 4 -10 4 -6 -1 4 -4 2 -15 -5 -23 -8 -11 -8 -14 0 -9 6 4 14 3 18
-3 3 -6 -3 -10 -15 -10 -19 0 -20 -1 -6 -16 21 -21 20 -30 -1 -13 -15 13 -16
12 -11 -8 4 -13 2 -23 -3 -23 -5 0 -9 5 -9 12 0 6 -3 9 -6 5 -3 -3 -2 -12 2
-19 5 -7 9 -19 10 -26 2 -11 0 -11 -14 0 -14 11 -14 11 -5 -6 8 -14 7 -23 -5
-37 -9 -10 -18 -16 -22 -14 -3 2 -6 -5 -7 -15 -1 -11 3 -22 8 -25 5 -4 7 -11
3 -16 -3 -5 -9 -7 -13 -5 -10 7 -7 -66 4 -85 8 -12 6 -12 -8 0 -9 7 -17 21
-18 30 0 9 -3 11 -5 4 -3 -7 0 -22 7 -34 10 -19 9 -21 -5 -16 -14 6 -14 3 1
-21 14 -22 15 -25 2 -15 -13 10 -16 10 -16 -2 0 -8 5 -15 11 -15 5 0 2 -6 -9
-13 -14 -11 -15 -16 -5 -22 9 -5 11 -4 6 3 -4 7 -2 12 3 12 17 0 13 -15 -11
-46 -21 -26 -21 -27 -3 -21 20 7 20 7 1 -8 -14 -11 -16 -15 -5 -15 11 0 11 -2
1 -8 -8 -5 -10 -16 -6 -27 5 -13 4 -16 -4 -11 -8 4 -10 2 -6 -8 3 -8 0 -25 -7
-38 -12 -22 -11 -22 6 -8 17 14 17 14 7 -7 -9 -16 -9 -24 -1 -29 9 -5 6 -11
-6 -21 -11 -7 -13 -13 -6 -13 7 0 9 -5 6 -10 -4 -6 -11 -7 -17 -4 -7 4 -8 2
-4 -5 4 -6 11 -9 16 -6 5 3 12 0 16 -6 5 -8 3 -9 -6 -4 -10 6 -11 1 -6 -21 4
-18 3 -24 -2 -16 -7 11 -10 9 -14 -6 -4 -13 -1 -19 6 -16 7 3 11 -7 11 -25 1
-16 -2 -28 -6 -25 -4 2 -10 0 -14 -6 -3 -5 2 -10 12 -11 10 0 13 -3 6 -5 -8
-4 -9 -13 -3 -28 5 -15 5 -27 -3 -35 -8 -8 -7 -11 3 -11 9 0 8 -5 -6 -15 -19
-15 -19 -15 1 -8 11 3 17 3 13 -2 -4 -4 -3 -14 4 -22 6 -7 8 -16 4 -20 -3 -3
-6 -1 -6 6 0 7 -5 9 -12 5 -7 -5 -8 -2 -3 7 5 8 4 10 0 6 -12 -10 -15 -38 -4
-31 5 3 9 2 10 -3 5 -44 6 -70 1 -78 -13 -21 -10 -36 11 -50 12 -8 16 -15 9
-15 -6 0 -12 -7 -12 -16 0 -8 -5 -12 -11 -9 -6 4 -5 -2 2 -13 7 -12 18 -18 24
-15 5 3 4 0 -3 -8 -17 -19 -15 -32 5 -25 15 5 15 4 -1 -9 -16 -12 -17 -15 -4
-20 16 -6 14 -49 -3 -71 -5 -7 -3 -11 6 -11 8 0 12 4 9 8 -2 4 0 10 5 13 11 7
9 -20 -2 -31 -4 -4 3 -13 15 -21 23 -13 23 -13 1 -9 -15 3 -20 1 -16 -9 3 -8
10 -11 17 -8 6 3 2 -2 -9 -11 -20 -17 -20 -17 3 -10 22 6 23 5 12 -16 -11 -19
-10 -21 3 -16 12 4 14 2 10 -10 -4 -10 -2 -14 4 -10 5 3 10 0 10 -8 0 -13 -3
-13 -17 0 -14 13 -17 13 -17 0 0 -8 3 -13 6 -11 3 2 12 -2 19 -10 12 -13 8
-18 -11 -15 -4 1 2 -12 14 -28 12 -17 26 -28 31 -25 4 3 8 0 8 -6 0 -7 -7 -10
-15 -6 -8 3 -15 1 -15 -4 0 -6 5 -10 10 -10 6 0 16 -12 23 -27 6 -16 16 -32
22 -36 6 -5 3 -7 -7 -3 -12 3 -15 1 -11 -9 3 -8 9 -12 14 -9 5 3 9 1 9 -5 0
-5 -5 -13 -10 -16 -6 -3 -10 -11 -10 -16 0 -6 7 -3 16 5 20 20 30 21 14 1 -10
-12 -10 -15 0 -15 10 0 10 -3 0 -15 -10 -12 -8 -14 9 -10 12 2 19 0 16 -5 -3
-5 -1 -11 4 -15 6 -3 7 -13 4 -22 -5 -12 -3 -14 8 -8 11 7 11 5 -1 -10 -12
-15 -12 -17 -1 -10 11 6 13 4 8 -8 -3 -9 -1 -19 5 -23 6 -4 8 -3 4 4 -3 6 -2
13 3 16 6 4 8 -9 6 -31 -2 -22 0 -31 5 -23 11 17 38 22 47 8 3 -6 1 -8 -4 -5
-6 4 -17 -1 -24 -10 -12 -15 -12 -16 4 -10 19 7 23 -3 6 -20 -8 -8 -7 -13 2
-18 7 -5 10 -4 5 3 -4 6 1 10 13 9 11 0 17 -6 13 -11 -10 -16 -10 -46 0 -40 5
4 7 12 4 20 -3 8 -1 14 4 14 6 0 10 -11 10 -25 0 -14 5 -25 11 -25 5 0 7 5 3
12 -4 7 -3 8 5 4 6 -4 9 -12 6 -17 -4 -5 2 -9 11 -9 10 0 14 -3 11 -6 -3 -4
-1 -16 5 -28 7 -11 12 -24 13 -28 0 -3 4 -10 8 -15 5 -4 7 -3 5 2 -3 11 4 15
27 15 8 0 15 -5 15 -11 0 -5 -4 -8 -9 -5 -5 3 -12 -1 -15 -10 -6 -15 -3 -15
20 1 15 9 24 13 21 9 -3 -5 1 -22 8 -39 l13 -30 -3 33 c-2 18 0 30 6 26 5 -3
7 -9 4 -14 -3 -4 2 -13 10 -20 8 -7 13 -16 10 -20 -3 -5 0 -12 7 -16 7 -4 10
-4 6 1 -4 4 -2 15 5 23 8 11 8 14 0 9 -6 -4 -15 -2 -19 5 -4 7 -4 10 1 6 4 -4
14 -3 22 4 11 9 13 8 11 -2 -2 -9 6 -14 22 -15 18 0 24 -5 22 -18 -3 -15 9
-22 32 -18 4 1 13 -2 20 -7 22 -16 61 -8 63 13 3 20 3 20 -6 0 -8 -19 -8 -19
-19 1 -10 18 -8 20 11 18 12 -1 25 -3 30 -3 4 -1 7 -9 8 -18 0 -12 4 -8 11 9
7 21 15 27 31 24 15 -2 21 -9 19 -22 -2 -18 -2 -18 8 -1 6 9 8 23 4 30 -5 7 0
6 11 -3 17 -14 17 -13 11 10 -5 18 -4 21 3 11 13 -20 38 -22 52 -5 6 8 15 11
20 8 5 -3 9 3 9 12 0 16 -1 16 -19 0 -17 -15 -19 -15 -25 -1 -3 10 -2 14 5 10
5 -4 16 -1 24 5 12 10 18 10 29 1 11 -9 16 -9 22 0 4 7 3 9 -3 6 -6 -4 -13 0
-16 7 -4 10 0 13 14 11 18 -4 19 -2 7 12 -12 15 -11 15 10 4 12 -6 23 -9 23
-6 1 3 2 8 3 13 0 4 16 22 35 40 19 17 29 32 24 32 -6 0 -17 -10 -25 -22 -14
-21 -15 -21 -22 -3 -4 11 -4 16 0 12 12 -11 33 13 27 31 -4 14 -3 15 6 2 9
-13 12 -13 23 -1 11 12 10 12 -2 6 -13 -8 -13 -7 0 11 8 10 19 22 23 25 5 3 8
10 8 15 -1 5 4 9 11 9 6 0 13 6 16 14 3 8 0 11 -5 8 -5 -3 -10 0 -10 8 0 11 5
12 21 3 19 -10 20 -10 7 5 -11 14 -11 18 3 23 9 3 16 13 16 21 0 8 -5 11 -12
7 -7 -4 -8 -3 -4 5 4 6 12 9 17 6 8 -6 13 11 12 43 -1 10 15 16 38 14 8 -1 5
30 -4 45 -4 6 -2 15 4 19 8 5 9 3 4 -6 -5 -9 -4 -11 4 -6 9 6 9 11 -1 24 -10
12 -10 14 0 8 7 -4 12 -2 12 4 0 6 5 8 12 4 8 -5 9 -2 5 11 -6 14 -3 16 15 12
22 -6 22 -6 -2 14 l-25 19 27 -9 c25 -9 26 -9 23 20 -4 26 -3 28 11 14 20 -19
30 -20 14 0 -8 9 -8 15 -2 15 6 0 14 9 17 20 4 11 10 18 15 15 5 -3 11 -1 14
4 4 5 1 13 -5 17 -8 5 -9 3 -4 -6 6 -9 4 -11 -4 -6 -9 6 -8 13 5 28 16 16 16
21 4 28 -11 7 -11 10 -2 10 9 0 10 5 3 18 -6 11 -6 24 0 35 8 13 7 17 -3 15
-8 -2 -14 8 -16 25 -2 19 -9 27 -23 27 -10 0 -19 5 -19 11 0 5 -6 7 -12 3 -10
-6 -10 -4 0 7 16 17 16 32 0 23 -10 -6 -10 -5 -1 7 10 12 8 17 -10 29 -20 12
-21 12 -8 -3 9 -11 10 -17 2 -17 -6 0 -11 3 -12 8 0 4 -2 15 -4 25 -2 9 2 17
8 17 5 0 7 3 4 6 -4 4 -14 1 -24 -7 -11 -9 -14 -10 -9 -2 12 21 16 54 5 48 -5
-4 -7 -10 -4 -15 3 -5 1 -11 -4 -15 -10 -6 -7 27 4 46 4 5 -1 20 -12 31 -18
21 -18 21 1 14 16 -5 17 -4 6 9 -10 12 -10 18 0 30 10 12 10 15 -1 15 -9 1 -8
4 4 11 9 6 15 15 11 21 -4 6 1 6 14 -1 30 -16 39 -13 16 5 -18 15 -18 15 5 8
16 -4 21 -3 17 5 -5 7 -2 10 6 9 7 -2 12 2 11 8 -1 6 4 11 12 11 8 0 11 -5 8
-10 -3 -5 0 -7 8 -5 8 3 13 11 11 17 -1 7 2 10 8 6 5 -3 10 -1 10 6 0 7 3 9 6
6 4 -4 1 -13 -6 -22 -8 -9 -8 -15 -2 -15 6 0 14 5 17 10 4 6 12 7 18 3 7 -4 5
2 -3 12 -14 17 -14 18 8 6 12 -6 22 -8 22 -4 0 4 6 -1 13 -12 11 -14 16 -15
22 -5 6 9 4 11 -5 5 -8 -5 -11 -3 -8 6 3 8 1 23 -5 34 l-10 20 23 -20 c13 -11
20 -14 16 -7 -4 7 -2 12 5 12 10 0 10 3 1 12 -7 7 -12 16 -12 21 0 5 8 1 17
-8 15 -16 18 -16 28 -1 7 9 14 14 16 12 2 -3 5 6 5 19 1 15 -5 26 -15 28 -14
4 -14 5 2 6 19 1 24 31 5 32 -7 0 -4 4 7 9 18 8 18 9 2 9 -10 1 -15 6 -12 11
3 6 -1 10 -10 10 -15 0 -15 1 -1 16 20 19 20 20 1 22 -8 1 -22 3 -30 4 -12 1
-12 4 -2 17 8 10 8 13 0 8 -7 -4 -14 0 -17 11 -4 10 -13 19 -21 19 -8 0 -12
-4 -9 -9 3 -4 0 -8 -5 -8 -6 0 -11 3 -11 8 0 4 -9 13 -21 20 -12 8 -18 9 -15
4 3 -6 -1 -12 -9 -15 -9 -4 -12 -1 -9 7 3 7 -2 19 -11 26 -12 10 -15 10 -15
-1 0 -10 -3 -10 -12 -1 -7 7 -25 12 -40 12 -15 0 -28 5 -28 11 0 5 -5 7 -12 3
-7 -4 -8 -3 -4 4 5 9 13 9 29 1 21 -10 21 -10 3 5 -11 9 -24 16 -29 16 -5 0
-3 8 4 17 12 15 12 16 -3 11 -28 -11 -29 4 -1 41 15 20 20 30 11 23 -13 -10
-18 -10 -24 -1 -4 8 -3 9 4 5 7 -4 12 -2 12 5 0 6 8 9 20 6 17 -4 18 -2 9 14
-6 12 -6 19 0 19 5 0 12 -6 15 -12 3 -7 4 -1 2 15 -2 15 1 30 7 34 5 3 7 1 4
-4 -4 -6 -1 -13 7 -16 9 -4 16 3 20 19 4 14 11 22 17 18 7 -4 7 -9 2 -13 -12
-7 -13 -42 -1 -35 5 3 6 10 3 15 -4 5 1 12 9 15 9 3 16 10 16 16 0 5 -4 7 -9
3 -6 -3 -9 4 -8 15 2 24 2 24 21 4 9 -8 16 -11 16 -6 0 5 -7 15 -15 22 -9 7
-13 21 -10 31 3 9 1 20 -4 23 -6 4 -8 13 -5 20 3 8 0 17 -6 21 -8 5 -7 11 2
23 12 14 10 14 -11 3 -15 -8 -21 -9 -17 -2 4 6 2 11 -3 11 -6 0 -11 4 -11 9 0
5 10 7 23 4 12 -2 4 5 -18 16 -22 11 -35 21 -30 21 6 0 3 5 -5 10 -8 5 -15 17
-15 27 0 11 -8 18 -20 18 -13 0 -20 6 -19 18 2 20 -12 23 -19 5 -3 -7 -3 2 0
20 5 31 -2 38 -31 33 -5 -1 -3 5 4 14 12 15 11 16 -5 13 -12 -2 -20 3 -21 12
0 8 -2 23 -2 33 -1 9 -5 16 -9 16 -20 -3 -24 2 -13 16 15 18 0 20 -20 3 -8 -7
-6 -3 3 9 14 16 15 23 6 29 -8 5 -10 3 -4 -7 8 -12 6 -12 -8 0 -9 7 -14 17
-12 22 3 4 -1 11 -9 16 -7 4 -25 25 -39 45 -13 20 -28 34 -32 30 -5 -4 -5 -1
-1 6 10 17 12 16 34 -22 11 -19 31 -40 44 -46 22 -11 21 -10 -3 12 -14 12 -33
35 -43 51 -9 15 -25 27 -36 27 -11 0 -20 7 -20 16 0 9 5 12 12 8 7 -5 8 -3 3
6 -6 10 -11 9 -23 -6 -13 -18 -14 -17 -10 8 3 16 1 26 -6 25 -6 -1 -10 3 -9 8
1 6 -10 12 -23 13 -15 1 -23 -2 -19 -8 4 -6 10 -8 15 -5 4 3 14 -3 21 -13 12
-15 12 -15 -1 -5 -8 6 -17 11 -20 10 -3 0 -14 4 -25 11 -11 6 -14 12 -7 12 6
0 12 4 12 10 0 10 -28 9 -45 -2 -6 -4 -12 3 -12 15 -2 17 0 19 7 7 8 -13 10
-13 10 1 0 9 -7 20 -16 23 -10 4 -13 2 -8 -6 5 -8 2 -9 -10 -5 -10 4 -22 7
-27 7 -6 0 -8 4 -5 8 3 5 -1 9 -9 9 -8 0 -12 -4 -9 -9 3 -4 0 -8 -5 -8 -6 0
-11 5 -11 12 0 6 -10 3 -22 -8 -13 -10 -17 -12 -10 -4 16 18 16 38 0 22 -15
-15 -28 -15 -28 -1 0 5 4 8 8 5 5 -3 9 1 9 8 0 12 -26 19 -28 7z m-359 -255
c0 -3 -4 -8 -10 -11 -5 -3 -10 -1 -10 4 0 6 5 11 10 11 6 0 10 -2 10 -4z m-30
-25 c0 -5 -7 -12 -16 -15 -14 -5 -15 -4 -4 9 14 17 20 19 20 6z m517 -213 c2
-19 0 -20 -8 -8 -8 12 -10 12 -7 1 5 -17 46 -22 55 -8 3 6 1 7 -5 3 -6 -3 -13
-2 -16 3 -7 11 13 9 32 -2 7 -5 12 -3 12 4 0 7 6 5 14 -6 7 -10 11 -27 8 -37
-4 -16 10 -24 40 -19 4 0 5 -11 2 -25 -3 -16 -1 -23 6 -19 5 3 10 1 10 -4 0
-6 -6 -11 -12 -11 -8 0 -9 -3 -3 -8 10 -7 17 -27 18 -49 0 -7 4 -10 9 -7 4 3
8 2 9 -3 0 -4 2 -17 4 -28 2 -10 -1 -25 -7 -32 -8 -10 -7 -12 4 -8 9 4 15 0
15 -9 0 -9 -6 -12 -16 -8 -13 5 -13 1 3 -22 10 -16 14 -26 8 -22 -5 3 -12 -3
-15 -14 -3 -11 -1 -18 3 -15 10 6 19 -16 12 -32 -2 -7 -12 -13 -21 -13 -14 0
-14 -2 -1 -10 13 -9 13 -10 0 -10 -13 0 -13 -1 0 -10 13 -9 7 -14 -12 -11 -5
0 -8 -6 -8 -15 0 -8 5 -12 10 -9 6 3 1 -10 -11 -29 -12 -20 -23 -36 -26 -36
-2 0 -2 4 1 9 3 5 -1 12 -10 15 -8 3 -12 2 -9 -4 3 -6 -3 -10 -15 -10 -19 0
-20 1 -6 16 18 18 21 34 5 34 -5 0 -8 -4 -4 -9 3 -5 2 -12 -3 -15 -4 -2 -8 6
-8 19 0 18 5 22 21 19 18 -3 17 -1 -5 16 -20 16 -21 19 -5 13 18 -6 18 -5 6
10 -11 14 -11 18 3 23 13 5 13 10 4 27 -11 21 -11 21 18 3 l29 -19 -19 21
c-11 12 -16 22 -12 22 4 0 1 9 -7 21 -8 11 -13 29 -10 40 5 18 -6 24 -31 20
-10 -2 -26 19 -26 34 0 6 5 3 10 -5 5 -8 10 -10 10 -5 0 6 -5 17 -10 25 -5 8
-10 10 -10 4 0 -7 -9 -14 -21 -17 -20 -5 -20 -5 -4 13 16 17 15 18 -19 10 -21
-4 -39 -4 -42 1 -3 5 -10 6 -16 3 -7 -4 -8 -2 -4 5 4 6 12 9 17 6 15 -10 10 2
-8 16 -9 8 -14 9 -10 3 4 -7 0 -14 -8 -18 -9 -3 -12 -12 -9 -23 5 -17 5 -17
-6 0 -9 14 -9 22 2 35 8 10 2 9 -18 -6 -17 -12 -35 -18 -39 -14 -4 4 -3 -2 3
-14 9 -16 8 -21 -3 -21 -8 0 -14 3 -13 6 2 21 -4 22 -18 3 -13 -19 -18 -21
-32 -10 -14 10 -15 10 -5 -1 6 -7 9 -21 6 -30 -3 -10 2 -8 14 6 14 17 21 20
33 12 13 -10 13 -10 -1 -6 -8 3 -21 -3 -27 -14 -7 -10 -19 -19 -28 -19 -9 0
-14 -6 -11 -14 4 -9 -2 -12 -20 -10 -14 1 -22 -1 -18 -4 4 -4 11 -7 16 -7 11
0 12 -14 2 -17 -5 0 -13 -8 -19 -16 -6 -8 -16 -12 -23 -8 -6 4 -11 4 -10 -1 4
-21 -2 -34 -13 -27 -7 5 -8 3 -2 -7 12 -20 14 -40 3 -33 -5 3 -9 1 -9 -4 0 -6
-7 -13 -16 -16 -10 -4 -13 -2 -8 7 5 9 3 8 -7 -1 -12 -11 -12 -14 1 -22 10 -7
11 -10 3 -10 -7 0 -13 -4 -13 -10 0 -5 8 -7 18 -4 14 5 14 4 -2 -6 -14 -10
-20 -9 -28 1 -7 12 -9 11 -7 -1 3 -29 -1 -41 -11 -35 -16 10 -11 -1 7 -16 9
-8 14 -9 10 -3 -4 7 1 18 11 25 16 13 16 13 2 -5 -8 -11 -14 -22 -12 -25 2 -3
-5 -8 -15 -12 -17 -7 -16 -8 2 -8 16 -1 17 -3 5 -10 -8 -6 -17 -8 -21 -5 -4 2
-11 0 -14 -6 -4 -6 -1 -9 7 -8 7 2 12 -3 10 -9 -1 -7 2 -13 6 -13 5 0 9 -7 9
-15 0 -10 -4 -12 -12 -5 -7 6 -11 3 -12 -10 -1 -13 3 -17 15 -13 14 4 14 3 3
-5 -8 -6 -11 -17 -8 -25 4 -10 1 -14 -6 -11 -8 3 -12 -9 -11 -36 1 -37 -6 -45
-30 -41 -5 1 -4 -5 3 -13 7 -8 9 -21 5 -27 -5 -8 -3 -9 6 -4 8 5 11 3 8 -6 -3
-8 -11 -13 -17 -11 -7 1 -9 -2 -6 -8 4 -6 14 -9 24 -6 9 4 5 -3 -9 -14 l-25
-19 25 4 25 4 -25 -19 -25 -19 25 5 c18 4 21 3 11 -4 -18 -13 -23 -85 -5 -78
18 7 29 -13 15 -27 -17 -17 -13 -27 7 -21 13 5 14 4 4 -4 -12 -8 -11 -12 1
-23 13 -12 13 -16 -1 -33 -16 -18 -16 -18 5 -7 25 13 36 14 29 3 -2 -4 0 -14
5 -22 8 -13 10 -13 19 0 6 9 10 11 10 3 0 -22 39 -36 58 -21 9 7 6 0 -8 -15
-20 -23 -21 -27 -6 -21 12 5 17 4 13 -3 -3 -5 0 -10 8 -10 11 0 12 4 4 13 -7
8 -7 14 1 19 6 4 9 1 8 -7 -2 -7 2 -12 8 -11 7 1 9 -8 6 -23 -3 -17 2 -30 14
-39 11 -8 15 -15 10 -15 -5 0 -2 -8 5 -17 8 -9 9 -14 3 -10 -8 4 -13 -4 -16
-24 -3 -16 0 -33 5 -36 6 -3 7 -1 3 5 -3 6 -2 13 3 16 5 4 8 -2 7 -11 -2 -10
-8 -19 -14 -19 -23 -3 -24 -4 -11 -21 13 -16 12 -17 -3 -5 -9 8 -16 19 -14 25
1 7 1 9 -1 4 -3 -4 -10 -4 -15 -1 -7 4 -8 2 -4 -4 7 -12 6 -13 -30 -17 -12 -1
-28 -6 -35 -10 -11 -6 -11 -5 -3 4 6 7 20 14 30 15 10 2 19 8 20 15 2 7 0 7
-3 1 -3 -7 -10 -7 -21 2 -9 7 -13 8 -10 3 4 -6 -5 -15 -18 -22 -13 -6 -24 -7
-24 -3 0 5 6 10 13 13 6 2 9 8 5 12 -4 4 -13 3 -20 -3 -9 -7 -17 -5 -28 6 -13
14 -12 15 2 10 17 -7 19 15 3 29 -4 4 -5 3 -2 -3 4 -7 -2 -14 -14 -17 -16 -4
-18 -3 -8 9 9 11 8 14 -4 14 -18 0 -30 27 -17 35 6 4 10 12 9 18 0 9 -2 9 -6
0 -2 -7 -9 -13 -14 -13 -5 0 -4 10 2 23 12 21 11 21 -6 7 -11 -9 -16 -10 -11
-2 4 6 3 12 -2 12 -14 0 -23 28 -11 35 5 4 9 3 8 -2 -3 -17 1 -24 11 -18 8 5
8 11 1 19 -6 7 -12 22 -14 34 -2 12 -7 25 -12 29 -4 5 -5 2 -1 -4 5 -9 2 -11
-10 -6 -11 4 -13 8 -6 11 7 2 12 11 12 21 0 9 6 23 13 30 10 11 9 12 -2 6 -11
-6 -13 -4 -8 8 4 11 1 17 -9 17 -8 0 -12 5 -9 10 4 6 11 8 16 5 5 -3 6 1 3 9
-3 9 -11 13 -17 9 -6 -4 -7 -1 -1 8 5 8 9 38 10 67 1 33 -2 48 -7 40 -5 -7 -9
-8 -9 -2 0 6 3 14 7 18 8 8 9 11 12 56 1 20 3 22 11 10 8 -12 10 -12 10 -1 0
8 -8 20 -17 27 -17 13 -17 14 2 7 18 -6 18 -5 6 10 -12 15 -12 17 1 12 11 -4
14 0 13 17 -2 14 -8 22 -16 20 -11 -3 -11 -1 -2 9 10 10 15 9 27 -1 9 -7 13
-16 10 -21 -3 -5 0 -9 5 -9 16 0 13 16 -4 30 -8 7 -12 16 -9 21 3 5 -3 9 -13
10 -14 0 -13 2 5 10 13 5 21 13 18 17 -3 5 -7 20 -10 35 -3 20 1 30 15 38 11
5 17 14 14 19 -3 4 1 11 7 14 7 3 2 3 -12 0 -23 -5 -23 -4 -8 9 12 10 14 17 7
24 -8 8 -7 13 2 18 8 5 10 4 5 -3 -4 -7 -2 -12 3 -12 6 0 11 7 11 15 0 9 7 18
15 21 13 5 13 8 0 21 -18 17 -19 29 -3 39 7 4 8 3 4 -4 -5 -8 -2 -10 9 -6 9 4
13 9 11 12 -3 3 0 12 7 20 10 13 9 14 -12 2 l-24 -13 21 27 c12 16 18 34 15
44 -6 15 -5 15 10 3 20 -16 22 -8 5 22 -10 21 -10 21 7 7 17 -14 18 -14 5 10
-12 23 -12 24 4 11 15 -12 17 -12 14 0 -2 8 3 13 10 11 8 -1 11 2 7 8 -4 6
-14 9 -22 6 -8 -3 -11 -1 -8 4 3 6 12 10 20 10 8 0 12 8 9 23 -2 12 -2 17 2
10 3 -7 12 -9 20 -6 12 4 12 8 2 17 -7 6 -12 10 -10 9 8 -4 30 22 26 29 -3 4
5 5 17 3 17 -4 20 -2 11 7 -16 16 -15 33 1 20 10 -8 16 -6 25 9 7 11 18 17 24
13 6 -4 8 -3 5 3 -4 6 2 18 13 28 11 10 20 23 20 28 0 6 -16 -7 -35 -29 -19
-21 -34 -33 -35 -26 0 6 5 12 11 12 5 0 7 5 3 12 -4 7 -3 8 4 4 11 -7 38 32
34 48 -2 5 3 4 11 -2 11 -9 18 -8 32 8 15 16 21 18 33 7 13 -10 15 -9 9 6 -4
11 -3 16 3 12 6 -3 10 -13 10 -21 0 -8 4 -14 10 -14 5 0 7 7 4 15 -5 11 -2 13
10 9 9 -3 13 -11 9 -17 -3 -6 -1 -7 6 -3 9 6 9 11 0 22 -10 12 -9 13 4 9 8 -4
18 -2 22 4 9 15 11 14 12 -11z m424 -65 c-12 -20 -14 -14 -5 12 4 9 9 14 11
11 3 -2 0 -13 -6 -23z m-304 11 c-3 -3 -12 -4 -19 -1 -8 3 -5 6 6 6 11 1 17
-2 13 -5z m-805 -81 c-6 -2 -10 -9 -6 -14 3 -5 0 -9 -5 -9 -12 0 -14 13 -4 23
3 4 11 7 17 6 6 0 5 -3 -2 -6z m846 -38 c-3 -3 -9 2 -12 12 -6 14 -5 15 5 6 7
-7 10 -15 7 -18z m-858 -29 c0 -3 -4 -8 -10 -11 -5 -3 -10 -1 -10 4 0 6 5 11
10 11 6 0 10 -2 10 -4z m285 -267 c-4 -5 -12 -9 -18 -8 -9 0 -8 2 1 6 6 2 9
10 6 15 -4 7 -2 8 5 4 6 -4 9 -12 6 -17z m900 -89 c3 -5 12 -7 20 -3 22 8 18
-5 -5 -17 -16 -8 -20 -8 -18 2 2 7 -5 12 -14 12 -10 -1 -15 2 -12 7 7 12 21
11 29 -1z m76 -52 c-10 -11 -11 -9 -5 6 6 15 4 17 -6 11 -9 -6 -11 -4 -5 4 5
9 10 10 18 2 8 -8 7 -14 -2 -23z m59 -3 c0 -8 -4 -15 -8 -15 -5 0 -9 7 -9 15
0 8 4 15 9 15 4 0 8 -7 8 -15z m-805 -64 c-3 -6 3 -14 12 -20 16 -9 16 -13 5
-31 -10 -17 -10 -20 -1 -14 9 5 10 2 5 -11 -5 -15 -4 -16 9 -5 13 11 14 10 9
-3 -3 -8 -12 -18 -21 -21 -12 -5 -13 -9 -3 -21 11 -13 10 -14 -6 -8 -17 6 -17
5 -5 -10 12 -15 12 -17 -4 -11 -13 5 -16 4 -11 -4 4 -7 1 -12 -9 -12 -11 0
-15 -5 -12 -14 3 -8 -1 -17 -9 -20 -9 -4 -12 -2 -8 5 4 7 0 9 -14 5 -13 -4
-22 -1 -26 9 -4 10 -2 14 6 9 7 -5 9 1 4 20 -4 16 -2 26 4 26 6 0 8 -5 4 -12
-4 -7 -3 -8 5 -4 9 6 9 11 0 22 -6 7 -16 11 -23 7 -6 -4 -5 1 3 10 7 9 19 17
25 17 6 0 4 -5 -4 -10 -8 -5 -10 -10 -4 -10 6 0 17 7 24 16 11 12 11 15 0 12
-7 -2 -13 7 -15 19 -1 17 2 20 11 13 8 -7 13 -6 17 5 4 9 13 12 24 9 15 -5 15
-4 3 4 -9 7 -19 7 -25 2 -8 -7 -12 -5 -12 5 0 8 4 12 8 10 3 -3 12 2 19 10 14
17 25 20 15 6z m858 -126 c-3 -9 -8 -14 -10 -11 -3 3 -2 9 2 15 9 16 15 13 8
-4z m-74 -49 c11 -14 6 -15 -27 -7 -4 1 8 21 12 21 2 0 9 -6 15 -14z m-1374
-175 c3 -5 2 -12 -3 -15 -5 -3 -9 1 -9 9 0 17 3 19 12 6z m1165 -20 c0 -6 -4
-12 -8 -15 -5 -3 -9 1 -9 9 0 8 4 15 9 15 4 0 8 -4 8 -9z m-895 -21 c3 -5 1
-10 -4 -10 -6 0 -11 5 -11 10 0 6 2 10 4 10 3 0 8 -4 11 -10z m6 -103 c-10 -9
-11 -8 -5 6 3 10 9 15 12 12 3 -3 0 -11 -7 -18z m989 -77 c0 -5 -2 -10 -4 -10
-3 0 -8 5 -11 10 -3 6 -1 10 4 10 6 0 11 -4 11 -10z m-760 -134 c0 -2 -7 -7
-16 -10 -8 -3 -12 -2 -9 4 6 10 25 14 25 6z m-415 -94 c-3 -3 -11 0 -18 7 -9
10 -8 11 6 5 10 -3 15 -9 12 -12z m857 -465 c-7 -8 -8 -18 -4 -23 4 -4 -1 -2
-10 5 -19 14 -25 26 -8 16 6 -3 13 1 16 10 4 9 9 14 12 11 3 -3 0 -12 -6 -19z
m-570 -21 c7 4 8 2 4 -4 -11 -18 -26 -14 -25 6 0 10 3 12 6 4 2 -6 10 -9 15
-6z m211 -121 c-7 -21 -12 -19 -10 4 0 11 5 18 9 15 4 -3 5 -11 1 -19z m46 -8
c8 -10 7 -14 -4 -14 -8 0 -15 6 -15 14 0 7 2 13 4 13 2 0 9 -6 15 -13z"/>
<path d="M715 3660 c-10 -11 -15 -23 -12 -27 4 -3 7 -1 7 6 0 7 7 11 15 8 8
-4 17 -1 21 5 5 7 2 8 -6 3 -10 -6 -12 -4 -7 8 8 22 4 21 -18 -3z"/>
<path d="M907 3649 c-4 -16 -3 -18 9 -8 7 6 11 15 8 20 -8 13 -11 11 -17 -12z"/>
<path d="M940 3602 c0 -5 7 -9 15 -9 8 0 12 4 9 9 -3 4 -9 8 -15 8 -5 0 -9 -4
-9 -8z"/>
<path d="M799 3503 c-12 -16 -12 -17 2 -6 9 7 20 9 24 5 5 -4 5 -1 1 6 -9 16
-11 15 -27 -5z"/>
<path d="M896 3453 c-6 -14 -5 -15 5 -6 7 7 10 15 7 18 -3 3 -9 -2 -12 -12z"/>
<path d="M935 3401 c-3 -6 -1 -11 5 -11 6 0 8 -4 5 -10 -3 -6 1 -7 10 -3 9 3
13 9 8 12 -4 3 -11 10 -14 14 -4 5 -10 4 -14 -2z"/>
<path d="M545 3360 c-3 -5 -1 -10 4 -10 6 0 11 5 11 10 0 6 -2 10 -4 10 -3 0
-8 -4 -11 -10z"/>
<path d="M1000 3309 c0 -5 5 -7 10 -4 6 3 10 8 10 11 0 2 -4 4 -10 4 -5 0 -10
-5 -10 -11z"/>
<path d="M490 3278 c0 -4 4 -8 9 -8 6 0 12 4 15 8 3 5 -1 9 -9 9 -8 0 -15 -4
-15 -9z"/>
<path d="M920 3286 c0 -2 7 -7 16 -10 8 -3 12 -2 9 4 -6 10 -25 14 -25 6z"/>
<path d="M955 3220 c-3 -5 -1 -10 4 -10 6 0 11 5 11 10 0 6 -2 10 -4 10 -3 0
-8 -4 -11 -10z"/>
<path d="M396 3067 c3 -10 9 -15 12 -12 3 3 0 11 -7 18 -10 9 -11 8 -5 -6z"/>
<path d="M355 2849 c-4 -6 -5 -12 -2 -15 2 -3 7 2 10 11 7 17 1 20 -8 4z"/>
<path d="M354 2760 c0 -13 4 -16 10 -10 7 7 7 13 0 20 -6 6 -10 3 -10 -10z"/>
<path d="M400 2675 c-11 -13 -10 -14 4 -9 9 3 16 10 16 15 0 13 -6 11 -20 -6z"/>
<path d="M490 2540 c0 -5 5 -10 11 -10 5 0 7 5 4 10 -3 6 -8 10 -11 10 -2 0
-4 -4 -4 -10z"/>
<path d="M588 2433 c7 -3 16 -2 19 1 4 3 -2 6 -13 5 -11 0 -14 -3 -6 -6z"/>
<path d="M406 2408 c3 -5 10 -6 15 -3 13 9 11 12 -6 12 -8 0 -12 -4 -9 -9z"/>
<path d="M788 4173 c7 -3 16 -2 19 1 4 3 -2 6 -13 5 -11 0 -14 -3 -6 -6z"/>
<path d="M530 4130 c-12 -7 -10 -9 7 -7 12 0 19 5 17 9 -6 10 -6 10 -24 -2z"/>
<path d="M437 4055 c3 -8 9 -12 14 -9 12 7 11 11 -5 17 -10 4 -13 1 -9 -8z"/>
<path d="M2546 3938 c3 -5 10 -6 15 -3 13 9 11 12 -6 12 -8 0 -12 -4 -9 -9z"/>
<path d="M2530 3920 c0 -5 5 -10 11 -10 5 0 7 5 4 10 -3 6 -8 10 -11 10 -2 0
-4 -4 -4 -10z"/>
<path d="M1125 3890 c-3 -6 1 -7 9 -4 18 7 21 14 7 14 -6 0 -13 -4 -16 -10z"/>
<path d="M226 3778 c3 -5 10 -6 15 -3 13 9 11 12 -6 12 -8 0 -12 -4 -9 -9z"/>
<path d="M3525 3771 c-16 -10 -34 -16 -40 -13 -5 3 -5 -1 2 -8 6 -7 9 -19 6
-28 -5 -11 -3 -13 7 -7 9 6 11 4 6 -4 -5 -7 -13 -10 -20 -8 -7 3 -11 -11 -12
-39 -1 -28 2 -41 9 -37 6 3 7 1 3 -5 -4 -7 -15 -12 -24 -12 -10 0 -13 -3 -7
-8 14 -10 17 -39 5 -47 -8 -5 -7 -11 1 -21 10 -12 9 -13 -4 -9 -8 4 -18 1 -23
-6 -4 -7 -3 -10 3 -6 6 4 13 0 16 -8 4 -9 1 -12 -7 -9 -7 3 -13 -2 -13 -11 0
-9 6 -14 14 -11 8 3 11 1 8 -4 -3 -6 -14 -10 -23 -11 -11 0 -12 -2 -4 -6 6 -2
9 -10 6 -16 -5 -8 -2 -8 7 1 7 6 18 12 23 12 6 0 4 -5 -4 -10 -11 -7 -11 -10
-2 -10 7 0 10 -5 6 -11 -5 -9 1 -10 22 -5 16 4 24 3 18 -1 -6 -4 -10 -21 -8
-36 2 -25 1 -27 -13 -15 -15 12 -15 11 -2 -9 8 -13 17 -23 22 -23 4 0 5 -5 2
-10 -4 -6 -11 -8 -16 -5 -5 3 -6 -1 -3 -9 3 -9 10 -13 15 -10 5 3 6 -2 3 -10
-3 -9 -10 -13 -15 -10 -5 3 -6 -2 -3 -10 3 -9 11 -13 18 -9 6 3 2 -3 -8 -15
-11 -12 -16 -25 -13 -29 4 -3 7 -1 7 5 0 7 4 12 9 12 5 0 7 -9 4 -20 -3 -11
-10 -17 -16 -13 -6 3 -7 1 -3 -6 4 -6 2 -20 -6 -29 -12 -15 -11 -16 4 -4 10 8
19 9 22 3 3 -5 1 -11 -6 -13 -6 -2 -12 -12 -14 -21 -1 -9 2 -15 7 -11 5 3 6
10 3 16 -4 7 -2 8 4 4 8 -5 8 -14 -1 -33 -9 -21 -9 -27 1 -31 7 -2 9 -8 6 -13
-3 -6 -12 -5 -21 3 -15 12 -15 11 -3 -9 8 -12 19 -19 25 -16 5 3 4 0 -2 -8 -7
-7 -13 -21 -13 -30 0 -10 -6 -20 -12 -23 -7 -3 -2 -3 12 1 22 5 23 4 11 -11
-9 -11 -10 -16 -2 -16 7 0 9 -5 6 -10 -4 -6 -10 -8 -14 -6 -4 3 -8 -1 -8 -9 0
-8 4 -12 8 -10 19 12 16 -26 -4 -41 l-22 -16 25 8 c20 6 23 4 14 -7 -15 -20
-17 -79 -2 -97 10 -12 10 -14 1 -8 -9 5 -13 -1 -13 -21 0 -22 2 -25 10 -13 6
9 10 10 10 3 0 -6 -4 -14 -9 -17 -5 -3 -9 -47 -9 -96 0 -50 3 -88 6 -86 4 2 7
-13 7 -34 0 -21 -3 -36 -6 -34 -4 2 -9 -3 -13 -11 -3 -8 0 -17 6 -21 7 -5 8
-2 3 6 -5 9 -4 11 4 6 15 -10 4 -26 -17 -26 -14 0 -15 -2 -2 -9 8 -6 18 -7 24
-4 5 3 6 1 2 -6 -4 -6 -13 -8 -19 -4 -9 5 -9 3 -1 -8 6 -8 10 -22 9 -31 -2
-10 1 -21 6 -24 13 -7 -8 -34 -27 -34 -7 0 -15 -4 -18 -9 -4 -5 4 -7 16 -4 17
3 19 2 9 -5 -9 -7 -10 -12 -2 -16 13 -9 5 -26 -12 -26 -7 0 -6 4 3 10 8 5 10
10 4 10 -16 0 -23 -10 -17 -26 3 -8 10 -11 17 -8 6 3 3 -1 -7 -9 -13 -11 -15
-16 -5 -20 10 -4 10 -7 -1 -18 -8 -8 -11 -9 -8 -3 3 6 0 11 -8 11 -13 0 -13
-34 1 -46 4 -3 4 2 1 11 -4 12 -2 15 9 11 11 -4 12 -8 3 -20 -7 -7 -19 -11
-27 -8 -12 4 -13 3 -2 -10 7 -8 16 -13 20 -10 5 3 11 1 14 -4 3 -4 -2 -8 -12
-7 -9 0 -18 -3 -19 -9 -2 -5 1 -10 6 -10 5 0 13 -3 17 -8 4 -4 15 0 25 9 11
10 19 12 24 4 3 -6 3 -9 -2 -8 -4 2 -9 -1 -11 -6 -4 -15 50 -19 61 -4 6 10 7
8 3 -4 -3 -10 -1 -20 4 -23 6 -4 10 0 10 8 0 11 7 13 23 9 19 -5 20 -3 9 10
-10 13 -10 18 -1 24 7 4 9 3 5 -4 -9 -15 12 -26 57 -27 40 -1 64 16 51 37 -5
8 -1 8 11 -2 17 -14 18 -14 7 7 -9 16 -9 23 1 27 6 4 2 4 -9 2 -20 -3 -21 -2
-8 22 16 31 8 48 -14 30 -14 -12 -14 -10 -3 10 11 20 8 26 -12 23 -5 -1 -6 3
-2 9 4 7 13 7 28 -1 21 -10 21 -10 -1 8 -18 15 -20 21 -10 32 11 10 10 12 -4
9 -9 -1 -17 2 -16 7 0 6 4 9 9 7 6 -1 6 5 0 17 -6 10 -7 22 -3 27 4 5 -1 2
-10 -5 -26 -19 -22 -6 5 19 14 14 16 19 6 15 -20 -8 -35 10 -18 21 8 5 9 3 4
-6 -5 -8 -4 -11 3 -6 6 4 9 13 6 21 -4 8 -10 12 -15 9 -14 -8 -10 3 7 20 14
15 14 16 -2 16 -16 0 -15 2 2 22 16 18 16 20 2 15 -19 -7 -19 13 1 37 7 8 10
20 6 26 -4 6 -2 17 4 24 8 9 7 13 -4 13 -8 0 -11 -5 -8 -11 3 -6 2 -8 -2 -3
-14 12 -13 48 2 54 7 3 10 9 7 14 -3 5 -9 7 -12 5 -4 -2 -7 13 -7 34 0 22 4
36 10 34 6 -3 11 6 12 18 2 18 0 20 -7 8 -8 -13 -10 -13 -10 2 0 9 5 18 11 20
8 3 6 10 -5 21 -16 15 -16 17 -1 17 9 0 13 5 10 10 -3 6 0 10 7 10 9 0 9 3 2
8 -6 4 -11 16 -11 27 0 11 5 23 11 27 8 5 7 8 -2 8 -8 0 -11 9 -8 26 4 19 1
24 -10 20 -7 -3 -14 -1 -14 4 0 6 7 10 15 10 8 0 15 5 15 11 0 6 -7 8 -17 4
-15 -5 -16 -4 -5 6 6 7 12 17 12 22 0 4 -6 5 -12 2 -7 -4 -6 -1 2 7 16 13 21
59 7 69 -11 8 -18 51 -6 44 5 -4 7 -10 4 -15 -3 -5 -2 -11 3 -14 4 -2 8 6 8
20 0 13 -4 24 -9 24 -5 0 -3 8 4 17 10 11 10 14 2 9 -7 -4 -13 -4 -14 1 0 4
-2 16 -4 26 -2 9 1 15 6 11 5 -3 7 -10 4 -15 -4 -5 -2 -9 4 -9 5 0 9 9 8 20
-1 11 -5 20 -10 20 -5 0 -5 6 1 13 5 6 8 22 6 35 -3 16 0 21 8 16 7 -4 8 -3 4
5 -5 7 -13 9 -20 4 -7 -4 -3 0 7 10 23 20 0 25 -23 5 -8 -7 -4 0 10 16 14 16
19 26 13 22 -7 -4 -13 -2 -13 3 0 6 6 11 13 11 8 0 7 4 -3 10 -9 6 -10 10 -3
10 6 0 11 9 10 20 -1 13 -6 19 -16 15 -12 -5 -12 -3 0 11 15 18 20 82 7 90 -4
3 -8 10 -8 16 0 6 7 5 18 -3 15 -12 16 -12 6 1 -6 8 -10 23 -9 33 2 9 0 17 -5
17 -4 0 -10 7 -14 15 -5 13 -2 14 17 4 18 -10 20 -10 11 2 -5 8 -9 24 -8 37 0
12 -3 22 -7 22 -5 0 -9 7 -9 16 0 14 2 15 18 3 15 -12 16 -12 6 1 -6 8 -10 30
-8 48 1 17 -2 32 -7 32 -6 0 -7 -4 -4 -10 15 -24 -6 -7 -26 21 -16 23 -19 33
-10 38 7 4 -4 7 -23 7 -19 -1 -34 -5 -33 -11 1 -5 -6 -9 -15 -7 -13 2 -16 -2
-12 -15 5 -15 4 -16 -5 -3 -8 11 -7 18 6 28 25 18 3 13 -32 -7z m86 -14 c-13
-13 -26 -3 -16 12 3 6 11 8 17 5 6 -4 6 -10 -1 -17z m-91 -7 c-12 -8 -12 -10
-1 -10 8 0 12 -3 8 -6 -9 -9 -28 6 -22 17 4 5 12 9 18 9 7 0 6 -4 -3 -10z
m-24 -84 c0 -14 -5 -21 -9 -17 -4 4 -5 15 -1 24 9 24 12 21 10 -7z m182 -71
c-3 -3 -9 2 -12 12 -6 14 -5 15 5 6 7 -7 10 -15 7 -18z m-1 -150 c0 -8 -4 -12
-9 -9 -5 3 -6 10 -3 15 9 13 12 11 12 -6z m3 -429 c0 -2 -8 -10 -17 -17 -16
-13 -17 -12 -4 4 13 16 21 21 21 13z m0 -150 c0 -3 -4 -8 -10 -11 -5 -3 -10
-1 -10 4 0 6 5 11 10 11 6 0 10 -2 10 -4z m0 -60 c0 -3 -4 -8 -10 -11 -5 -3
-10 -1 -10 4 0 6 5 11 10 11 6 0 10 -2 10 -4z m0 -287 c0 -5 -4 -9 -8 -9 -5 0
-9 7 -9 15 0 8 4 12 9 9 4 -3 8 -9 8 -15z"/>
<path d="M1185 3770 c-3 -6 1 -7 9 -4 18 7 21 14 7 14 -6 0 -13 -4 -16 -10z"/>
<path d="M4076 3766 c11 -8 15 -18 10 -23 -5 -4 -11 -3 -13 4 -4 10 -7 10 -18
0 -7 -7 -11 -15 -8 -20 2 -4 -1 -6 -9 -5 -7 2 -12 -2 -11 -8 1 -7 -6 -10 -20
-7 -18 4 -19 3 -7 -6 12 -9 10 -11 -10 -11 -20 0 -22 -2 -10 -11 12 -9 10 -10
-8 -6 -17 4 -21 2 -13 -7 13 -15 7 -52 -8 -48 -10 2 -16 -27 -12 -52 1 -5 -5
-3 -14 4 -13 11 -14 10 -9 -5 6 -14 4 -16 -6 -10 -9 5 -11 4 -6 -4 4 -6 12 -9
17 -6 5 4 9 1 9 -4 0 -6 -5 -11 -12 -11 -9 0 -9 -3 0 -12 10 -10 8 -16 -10
-31 -13 -10 -17 -16 -10 -12 17 9 15 -5 -5 -29 -17 -20 -17 -20 0 -7 10 8 17
9 17 3 0 -6 -4 -13 -10 -17 -5 -3 -6 -15 -1 -28 5 -14 5 -30 0 -40 -7 -11 -6
-17 1 -17 6 0 9 -14 8 -30 -2 -23 -6 -29 -18 -25 -9 3 -8 0 4 -10 10 -8 23
-12 29 -8 6 3 7 1 3 -6 -4 -6 -11 -9 -16 -6 -4 3 -6 -5 -2 -17 3 -12 1 -19 -4
-15 -6 3 -11 -4 -11 -16 -2 -17 0 -19 7 -7 7 11 10 11 10 2 0 -7 -8 -16 -17
-20 -18 -7 -22 -15 -25 -57 -1 -13 -6 -21 -10 -19 -5 3 -6 10 -3 15 4 5 -2 6
-11 2 -12 -4 -14 -8 -5 -11 9 -3 8 -9 -5 -23 -9 -10 -13 -19 -8 -19 5 0 2 -5
-6 -11 -13 -9 -12 -10 2 -5 13 4 15 1 11 -11 -5 -12 -3 -14 7 -8 9 5 11 4 6
-4 -6 -9 -11 -9 -21 -1 -9 7 -16 6 -26 -7 -13 -16 -12 -17 3 -5 16 13 17 11
13 -19 -2 -18 -10 -36 -17 -40 -7 -5 -8 -9 -2 -9 6 0 11 -7 11 -15 0 -13 -4
-12 -21 2 -13 12 -17 13 -10 3 16 -23 25 -52 14 -45 -6 3 -10 1 -10 -5 0 -6
-5 -8 -12 -4 -7 5 -8 3 -4 -5 5 -7 15 -10 25 -7 12 5 11 2 -3 -9 -11 -8 -15
-15 -9 -15 6 0 10 -8 8 -17 -2 -10 -4 -21 -4 -25 -1 -4 -9 -15 -18 -24 -17
-17 -17 -18 1 -11 13 5 17 3 13 -7 -3 -8 -1 -17 6 -20 7 -3 1 -3 -13 0 -24 5
-24 4 -6 -10 11 -9 15 -16 8 -16 -6 0 -9 -7 -5 -17 5 -11 3 -14 -6 -8 -7 4 -5
-5 5 -21 18 -26 18 -28 1 -21 -9 3 -17 4 -17 1 0 -2 10 -9 23 -14 22 -9 22 -9
-3 -10 -20 0 -22 -2 -10 -10 12 -7 13 -13 3 -28 -9 -15 -8 -19 3 -19 7 0 10 5
7 10 -3 6 -1 7 6 3 16 -10 -6 -39 -23 -30 -6 4 1 -6 17 -20 23 -23 29 -46 11
-46 -3 0 -3 4 1 9 3 5 0 13 -6 17 -7 4 -9 3 -5 -4 3 -6 -2 -13 -11 -15 -17 -4
-17 -5 0 -6 9 0 17 -6 17 -12 0 -5 5 -7 11 -3 8 5 9 2 2 -11 -12 -20 -6 -55 9
-55 6 0 4 -8 -3 -17 -12 -15 -12 -16 2 -11 13 5 16 2 12 -15 -4 -18 -3 -20 7
-7 10 13 11 12 6 -4 -4 -10 1 -30 10 -44 9 -14 11 -21 4 -17 -8 5 -11 3 -8 -6
3 -8 11 -13 17 -11 7 1 10 -2 7 -7 -4 -5 -3 -11 1 -14 5 -2 3 -2 -4 -1 -7 2
-15 -2 -19 -8 -5 -7 -2 -8 6 -3 10 6 12 4 6 -11 -6 -15 -5 -16 5 -7 17 17 38
-12 39 -51 0 -16 3 -27 6 -23 8 7 34 -17 34 -32 0 -10 20 -15 41 -13 4 1 5 -8
2 -18 -4 -14 0 -20 11 -20 9 0 16 5 16 11 0 5 -5 7 -12 3 -7 -5 -8 -3 -3 5 9
16 23 2 28 -28 5 -29 35 -36 55 -13 7 9 10 11 6 3 -3 -7 -1 -17 6 -21 14 -9
42 -2 36 9 -2 3 2 12 10 19 9 8 14 9 14 2 0 -6 5 -8 10 -5 6 4 7 12 4 18 -4 7
-4 9 1 5 4 -4 14 0 22 10 12 16 13 16 6 -2 -5 -14 -3 -17 7 -11 9 6 11 4 5 -4
-6 -10 -2 -10 16 0 13 7 28 12 32 11 5 -1 6 2 2 8 -5 8 -11 7 -21 -1 -10 -8
-14 -8 -14 0 0 6 5 11 11 11 5 0 8 4 5 9 -3 4 6 6 19 3 15 -2 25 0 25 7 0 7
-4 10 -9 6 -5 -3 -12 -1 -15 4 -4 5 5 8 19 6 14 -1 25 2 25 6 0 5 -5 9 -11 9
-5 0 -7 5 -4 11 4 6 14 8 22 5 8 -3 12 -2 9 2 -7 12 24 53 35 47 5 -4 9 -1 9
4 0 14 -13 14 -28 -1 -7 -7 -12 -8 -12 -4 0 5 10 17 22 27 11 11 17 19 12 19
-5 1 2 7 15 14 20 11 21 14 7 19 -11 5 -15 3 -10 -5 4 -7 3 -8 -5 -4 -8 6 -9
12 -2 20 6 7 7 17 3 21 -4 5 -1 5 6 1 6 -4 12 -2 12 4 0 6 4 8 10 5 6 -3 7 1
4 9 -3 9 -11 13 -17 9 -6 -4 -7 -1 -3 6 5 7 14 10 22 7 11 -4 12 -1 6 12 -13
23 -7 50 15 75 10 11 12 17 4 12 -9 -5 -12 -3 -9 6 3 8 11 13 18 11 11 -3 11
0 1 12 -14 17 -7 71 8 62 4 -3 8 1 8 9 0 12 -4 12 -20 -2 -19 -17 -20 -17 -9
3 6 12 8 25 4 29 -4 5 -2 5 4 2 14 -8 27 20 14 28 -5 3 -7 12 -4 20 4 8 11 12
17 8 6 -3 7 -1 3 6 -6 9 -11 9 -22 0 -12 -10 -14 -8 -11 10 2 13 10 27 18 32
11 7 11 9 -3 9 -21 0 -23 11 -6 28 9 9 9 12 -3 12 -12 0 -12 2 1 10 10 6 11
10 3 10 -7 0 -13 5 -13 11 0 5 5 7 12 3 6 -4 8 -3 4 4 -3 5 -3 12 1 15 5 2 3
2 -4 1 -9 -2 -10 6 -6 28 4 22 3 29 -6 24 -6 -4 -8 -12 -5 -18 4 -7 2 -8 -5
-4 -6 4 -8 13 -4 19 12 20 13 40 1 54 -8 10 -7 13 3 10 8 -2 11 -2 7 0 -3 2
-4 15 -2 29 2 13 0 24 -5 24 -6 0 -8 -9 -6 -20 2 -11 -1 -20 -7 -20 -5 0 -8 6
-5 14 3 7 0 19 -6 26 -8 8 -8 11 -1 7 6 -4 16 6 23 21 10 24 10 25 -2 10 -19
-24 -30 -23 -22 3 5 14 3 19 -3 15 -6 -3 -14 -1 -18 5 -4 7 -3 9 3 6 18 -11
23 21 5 35 -10 8 -13 8 -9 1 4 -6 2 -15 -4 -19 -7 -4 -9 -3 -5 4 3 6 2 13 -4
17 -6 4 -7 11 -4 17 4 6 -1 17 -11 25 -11 7 -15 13 -10 13 5 0 20 -10 34 -22
14 -13 20 -16 13 -7 -6 9 -8 20 -4 24 4 5 2 5 -4 2 -7 -4 -17 -1 -23 7 -9 11
-9 15 1 19 11 4 10 6 0 6 -7 1 -10 6 -6 13 4 7 3 8 -5 4 -6 -4 -9 -11 -6 -16
3 -5 2 -11 -2 -13 -5 -3 -9 8 -9 24 -1 17 2 26 9 22 6 -4 7 -1 3 6 -5 7 -14
10 -22 7 -7 -3 -16 0 -20 6 -4 7 -3 8 4 4 8 -5 12 4 12 28 0 19 6 37 13 39 9
4 8 6 -2 6 -11 1 -11 4 0 18 8 10 9 14 2 10 -8 -5 -11 0 -10 13 1 11 5 20 9
20 4 0 8 7 8 16 0 9 -5 12 -12 8 -9 -5 -9 -2 1 9 7 9 10 17 6 17 -4 0 -2 7 5
15 10 12 8 14 -12 10 -22 -4 -22 -4 -4 10 11 8 15 15 9 15 -6 0 -13 9 -16 20
-3 11 -1 20 4 20 5 0 9 4 9 10 0 5 -8 6 -17 3 -16 -6 -16 -5 -4 10 9 11 10 17
2 17 -6 0 -11 6 -11 14 0 8 -3 16 -7 19 -5 2 -3 2 4 1 7 -2 15 2 19 8 5 7 3 8
-5 4 -8 -5 -11 -2 -9 9 2 10 -4 20 -12 22 -13 4 -13 3 0 -6 9 -7 10 -11 3 -11
-20 0 -24 17 -9 33 15 14 12 27 -6 27 -5 0 -7 -4 -3 -9 3 -5 1 -12 -4 -15 -11
-7 -9 13 3 32 4 7 4 12 -1 11 -20 -3 -33 2 -30 14 1 6 -4 11 -10 10 -7 -2 -13
4 -13 13 0 9 5 12 13 8 9 -5 9 -4 1 5 -16 17 -66 21 -84 8 -12 -9 -13 -9 -2 3
6 8 12 21 12 29 0 11 -4 10 -15 -5 -15 -18 -15 -18 -8 0 4 13 3 17 -5 12 -7
-4 -12 -2 -12 3 0 6 -8 11 -17 11 -15 0 -14 -2 3 -14z m101 -58 c-3 -8 -6 -5
-6 6 -1 11 2 17 5 13 3 -3 4 -12 1 -19z m-62 -268 c-3 -5 2 -11 12 -11 17 -1
17 -2 0 -6 -14 -4 -17 -12 -12 -39 4 -26 2 -34 -7 -29 -7 4 -6 1 3 -7 14 -12
14 -15 -4 -33 -20 -20 -20 -20 -7 3 11 22 10 23 -12 17 -18 -5 -20 -4 -8 4 8
6 10 11 4 11 -6 0 -11 7 -11 15 0 10 6 14 16 10 11 -3 10 -1 -3 10 -10 8 -24
12 -30 9 -6 -3 -1 3 12 14 12 11 19 22 15 25 -5 2 -3 2 4 1 7 -2 15 1 18 6 4
6 8 10 11 10 3 0 2 -4 -1 -10z m-190 -38 c-3 -3 -11 0 -18 7 -9 10 -8 11 6 5
10 -3 15 -9 12 -12z m220 0 c-12 -8 -13 -22 -2 -39 5 -8 4 -13 -2 -13 -6 0
-11 3 -12 8 0 4 -2 17 -5 30 -3 16 1 22 14 22 10 0 13 -3 7 -8z m-290 -322
c-3 -5 -12 -10 -18 -10 -7 0 -6 4 3 10 19 12 23 12 15 0z m213 -114 c8 12 68
12 80 -1 4 -4 -3 -4 -15 -1 -23 7 -40 -8 -22 -20 8 -4 9 -3 5 4 -5 8 3 10 26
5 38 -7 49 -13 24 -13 -20 0 -17 -22 5 -28 11 -3 11 -2 -1 7 -13 9 -12 11 4
11 14 0 17 -6 14 -24 -4 -19 -1 -23 11 -18 13 5 14 3 4 -9 -13 -16 5 -49 28
-50 8 0 5 -4 -6 -9 -11 -5 -14 -9 -7 -9 7 -1 10 -6 6 -13 -4 -6 -3 -8 4 -4 6
3 13 2 17 -4 3 -5 1 -10 -4 -10 -6 0 -11 -5 -11 -11 0 -5 6 -7 13 -3 9 6 9 4
-1 -8 -9 -11 -10 -18 -2 -23 5 -3 10 -1 10 6 0 7 2 10 5 7 3 -3 3 -13 -1 -22
-5 -14 -9 -14 -22 -4 -13 12 -14 10 -3 -10 11 -20 15 -21 29 -10 15 12 16 11
3 -5 -8 -10 -21 -15 -29 -12 -12 4 -13 3 -2 -10 7 -8 17 -12 24 -8 6 3 6 0 -1
-8 -19 -20 -16 -34 4 -18 13 11 15 11 9 1 -4 -7 -18 -17 -30 -22 -17 -7 -18
-9 -3 -9 10 -1 15 -6 12 -11 -4 -6 -11 -7 -17 -4 -6 4 -8 2 -4 -4 3 -5 3 -12
-1 -15 -5 -2 -2 -2 5 -1 14 4 14 2 6 -20 -3 -9 -11 -13 -18 -9 -6 4 -4 -1 4
-11 13 -16 12 -20 -4 -32 -12 -8 -16 -19 -12 -30 6 -15 4 -15 -10 -3 -16 13
-16 12 -4 -11 12 -22 12 -24 -2 -12 -13 10 -15 9 -13 -13 2 -14 -2 -28 -7 -32
-6 -3 -9 -2 -6 3 3 5 0 14 -7 21 -10 10 -14 9 -19 -3 -3 -8 -2 -12 4 -9 5 3 8
-3 7 -14 0 -11 -5 -17 -10 -14 -4 2 -15 -1 -24 -9 -14 -11 -16 -11 -8 1 6 11
4 13 -7 9 -8 -4 -21 -2 -29 3 -12 8 -11 12 5 24 11 8 15 15 10 15 -6 0 -15 -5
-22 -12 -9 -9 -12 -9 -12 0 0 7 -8 12 -17 12 -17 -1 -17 -1 0 -14 21 -16 22
-23 2 -23 -8 0 -12 4 -9 8 2 4 0 10 -6 14 -7 4 -6 13 1 27 6 11 7 18 1 15 -5
-4 -18 1 -28 9 -10 9 -12 13 -4 9 9 -4 8 -1 -3 8 -12 10 -14 17 -8 22 6 3 11
12 11 18 0 7 -4 6 -11 -3 -9 -12 -10 -11 -6 7 4 17 1 20 -12 16 -13 -5 -14 -3
-3 8 14 16 16 33 2 24 -5 -3 -10 -3 -11 2 0 4 -3 17 -6 28 -9 36 -9 94 0 88 4
-3 6 -11 4 -17 -3 -7 0 -13 7 -13 6 0 12 8 12 18 0 10 -5 15 -10 12 -5 -4 -7
1 -3 11 4 9 3 15 -1 12 -5 -3 -9 2 -9 10 0 8 6 13 12 10 13 -5 12 34 -1 56 -6
10 -5 11 7 1 13 -10 15 -8 13 17 -1 16 -5 33 -8 38 -3 6 2 9 11 7 10 -1 17 -8
15 -15 -1 -6 2 -9 8 -5 8 5 8 11 1 19 -6 7 -8 16 -4 20 4 4 0 4 -9 1 -9 -4
-19 -2 -23 4 -4 7 0 8 11 4 12 -4 15 -3 10 5 -5 8 -2 10 8 6 15 -6 22 11 17
39 0 4 4 7 10 7 5 0 7 5 3 12 -4 7 -3 8 5 4 6 -4 9 -11 6 -16 -6 -9 10 -7 38
5 9 4 17 12 17 18 0 5 -9 2 -20 -8 -11 -10 -20 -16 -20 -12 0 3 -3 14 -6 24
-5 15 -4 16 5 3 8 -10 13 -12 19 -4z m162 -100 c0 -11 -19 -15 -25 -6 -3 5 1
10 9 10 9 0 16 -2 16 -4z m-260 -40 c0 -3 -4 -8 -10 -11 -5 -3 -10 -1 -10 4 0
6 5 11 10 11 6 0 10 -2 10 -4z m-15 -55 c3 -5 2 -12 -3 -15 -5 -3 -9 1 -9 9 0
17 3 19 12 6z m95 -719 c0 -5 -7 -9 -15 -9 -8 0 -12 4 -9 9 3 4 9 8 15 8 5 0
9 -4 9 -8z m47 -14 c-3 -8 -6 -5 -6 6 -1 11 2 17 5 13 3 -3 4 -12 1 -19z"/>
<path d="M3940 2643 c1 -18 18 -35 24 -24 4 6 2 11 -4 11 -6 0 -8 5 -5 10 3 6
1 10 -4 10 -6 0 -11 -3 -11 -7z"/>
<path d="M3654 3755 c8 -7 12 -16 8 -20 -4 -5 -2 -5 5 -1 16 9 6 33 -14 33
-14 0 -14 -1 1 -12z"/>
<path d="M4033 3763 c4 -3 -5 -15 -20 -25 -16 -10 -23 -18 -18 -18 15 0 55 29
55 41 0 5 -5 9 -12 9 -6 0 -8 -3 -5 -7z"/>
<path d="M4141 3763 c-1 -17 16 -25 25 -12 4 7 3 9 -4 5 -5 -3 -13 0 -15 6 -4
9 -6 10 -6 1z"/>
<path d="M4720 3760 c-9 -6 -10 -10 -3 -10 6 0 15 5 18 10 8 12 4 12 -15 0z"/>
<path d="M4758 3753 c-24 -6 -23 -19 1 -19 11 0 18 3 15 7 -2 4 2 10 8 12 16
7 0 6 -24 0z"/>
<path d="M4819 3742 c18 -14 21 -21 11 -27 -9 -6 -11 -4 -5 5 6 10 3 12 -13 8
-15 -4 -20 -2 -16 5 3 7 -2 3 -10 -7 -10 -12 -16 -15 -16 -7 0 7 -6 11 -14 8
-7 -3 -17 -2 -22 3 -13 12 -64 20 -64 10 0 -5 6 -10 13 -13 9 -3 9 -8 -2 -18
-8 -8 -11 -9 -9 -4 3 6 0 16 -8 23 -12 11 -14 9 -14 -13 0 -15 -4 -24 -10 -20
-6 4 -7 11 -4 17 4 7 0 7 -13 -1 -14 -7 -19 -19 -18 -40 1 -17 -2 -28 -7 -25
-5 4 -7 12 -4 20 3 7 1 16 -4 19 -10 6 -14 -8 -10 -34 1 -8 -11 -24 -25 -37
-16 -13 -25 -30 -22 -38 3 -7 -5 -24 -18 -36 -14 -13 -22 -26 -20 -30 2 -4 -7
-5 -22 -2 -18 3 -24 1 -19 -7 4 -6 13 -8 19 -4 8 5 8 2 0 -9 -7 -8 -9 -19 -5
-23 4 -5 1 -5 -6 -1 -7 4 -9 12 -6 18 4 7 2 8 -5 4 -6 -4 -8 -12 -5 -18 4 -6
0 -15 -7 -20 -10 -7 -7 -7 9 -3 19 5 22 2 23 -22 1 -15 1 -31 0 -36 0 -4 4 -6
11 -5 7 2 12 -2 13 -9 0 -6 3 -14 7 -18 10 -11 3 17 -11 45 l-14 25 25 -25
c13 -14 22 -31 19 -39 -3 -10 0 -12 10 -7 8 4 6 1 -5 -8 -18 -14 -18 -15 3
-13 11 1 21 5 21 10 0 4 5 5 11 1 8 -4 3 -12 -12 -20 -21 -12 -21 -13 -4 -11
11 1 26 7 34 11 10 6 12 5 7 -2 -4 -6 2 -17 14 -24 11 -7 20 -17 20 -22 0 -4
-6 -4 -13 2 -9 8 -17 8 -27 0 -12 -8 -12 -9 2 -4 17 5 35 -9 21 -17 -5 -2 -3
-2 4 -1 6 2 14 -2 16 -9 2 -7 3 -4 2 6 -3 19 11 23 18 5 2 -7 4 2 5 20 0 18 7
41 14 50 7 9 8 13 2 9 -6 -3 -11 0 -11 8 0 8 4 12 8 9 5 -2 17 1 28 8 18 11
18 13 3 26 -9 7 -11 11 -4 7 7 -4 12 1 13 12 0 14 2 15 6 3 7 -17 23 -30 37
-30 6 0 1 7 -10 15 -18 13 -17 14 9 9 20 -3 26 -1 21 7 -5 8 -3 9 5 5 7 -5 10
-11 7 -14 -3 -3 4 -12 16 -20 19 -14 22 -13 33 2 11 15 13 15 19 1 3 -9 2 -13
-4 -10 -6 3 -10 2 -10 -3 0 -17 13 -22 29 -10 9 7 13 8 8 3 -4 -4 0 -19 9 -33
9 -13 11 -21 5 -18 -19 12 -12 -12 7 -24 16 -11 16 -11 0 -6 -10 3 -18 1 -18
-4 0 -6 4 -10 9 -10 5 0 12 -7 15 -16 5 -13 4 -14 -7 -6 -10 9 -14 8 -14 -3 0
-8 4 -15 8 -15 17 0 16 -43 -1 -60 -17 -17 -17 -19 -2 -23 15 -4 15 -5 0 -6
-10 0 -18 -6 -18 -12 0 -5 6 -7 13 -3 6 4 4 -1 -5 -12 -9 -10 -17 -23 -16 -27
0 -5 -3 -11 -6 -14 -3 -3 -4 4 -1 16 2 11 0 21 -6 21 -9 0 -13 -21 -9 -50 1
-10 -3 -9 -14 5 -8 11 -16 16 -16 11 0 -5 -8 -2 -17 5 -16 13 -17 12 -4 -3 7
-10 18 -15 24 -11 6 3 7 1 3 -5 -4 -6 -14 -8 -24 -5 -15 6 -16 5 -2 -12 14
-17 14 -17 -7 -4 -13 8 -23 17 -23 22 0 4 5 5 12 1 6 -4 8 -3 5 3 -8 12 -65 5
-74 -10 -4 -6 0 -8 9 -5 8 4 21 2 29 -4 11 -8 11 -9 -2 -5 -17 6 -39 -10 -39
-27 0 -6 5 -5 12 2 22 22 29 13 8 -10 -22 -24 -28 -47 -7 -30 10 8 13 6 13 -8
0 -10 -4 -17 -7 -14 -4 2 -10 0 -14 -6 -3 -5 -2 -10 3 -10 14 0 22 -39 10 -47
-7 -3 -8 -1 -4 5 4 7 2 12 -4 12 -6 0 -8 5 -4 12 4 7 3 8 -4 4 -9 -5 -9 -13 0
-29 16 -30 20 -57 8 -57 -6 0 -10 5 -10 12 0 6 -3 8 -7 5 -3 -4 3 -16 15 -27
26 -24 30 -39 5 -19 -15 13 -15 12 -5 -8 10 -17 9 -25 -4 -37 -8 -9 -12 -16
-7 -16 5 0 15 6 22 13 7 7 6 -2 -4 -27 -9 -21 -14 -41 -11 -44 3 -3 6 0 6 6 0
6 7 9 15 6 8 -4 15 -10 15 -16 0 -5 -4 -7 -8 -4 -5 3 -9 -2 -9 -11 0 -14 3
-13 16 3 11 13 30 19 59 20 23 0 39 -2 35 -5 -5 -3 -10 -15 -11 -26 -4 -19 -3
-19 16 2 l19 23 1 -30 c0 -17 -5 -30 -11 -30 -7 0 -4 -5 6 -11 10 -6 21 -8 24
-5 4 3 1 6 -5 6 -6 0 -9 7 -5 17 5 13 8 12 16 -8 15 -35 16 -50 6 -43 -5 3 -6
10 -3 16 4 7 2 8 -4 4 -15 -9 -15 -12 4 -30 12 -12 12 -16 2 -16 -10 0 -10 -2
0 -8 7 -5 14 -18 17 -31 2 -14 0 -19 -7 -15 -7 5 -9 2 -5 -9 3 -9 2 -19 -4
-22 -5 -4 -8 -14 -7 -23 2 -11 -3 -16 -15 -16 -14 2 -15 -1 -6 -12 9 -11 8
-14 -7 -15 -11 -1 -22 -1 -26 0 -5 0 -8 -4 -8 -9 0 -6 11 -8 25 -6 14 3 23 1
20 -5 -4 -5 -13 -9 -20 -9 -9 0 -12 -6 -8 -17 5 -15 3 -14 -10 2 -9 11 -17 16
-17 11 0 -5 -8 -2 -17 5 -16 13 -17 12 -4 -3 7 -10 18 -15 24 -11 6 3 7 1 3
-5 -5 -8 -13 -8 -31 0 -19 8 -28 8 -41 -3 -14 -11 -19 -10 -34 9 -17 21 -37
31 -26 14 3 -5 -1 -9 -8 -9 -11 0 -9 9 5 36 l20 36 -21 -24 c-22 -26 -26 -21
-9 12 l12 22 -24 -20 c-13 -11 -18 -13 -11 -5 6 8 12 24 12 36 0 12 3 24 8 27
4 2 2 2 -5 1 -17 -4 -26 13 -11 19 7 2 9 8 5 13 -4 5 -12 2 -16 -5 -5 -8 -14
-10 -21 -6 -9 5 -11 4 -6 -3 4 -7 2 -12 -3 -12 -6 0 -11 -8 -11 -17 1 -17 1
-17 11 0 13 21 25 22 33 1 5 -14 4 -15 -8 -5 -11 9 -15 8 -20 -4 -5 -13 -10
-14 -28 -4 -19 9 -21 9 -11 -2 10 -10 5 -17 -25 -37 -20 -13 -30 -21 -21 -19
9 3 22 1 30 -5 12 -8 11 -9 -2 -5 -8 3 -21 -3 -27 -13 -7 -12 -19 -17 -34 -13
-23 5 -23 5 -3 -10 20 -16 20 -16 -1 -11 -12 3 -25 0 -29 -7 -5 -8 -4 -10 3
-5 14 8 11 -29 -3 -41 -4 -5 -5 -3 -1 4 3 6 2 14 -4 18 -15 9 -12 -12 6 -51 9
-19 21 -34 28 -34 6 0 4 -5 -4 -10 -8 -5 -10 -10 -4 -10 5 0 15 5 22 10 6 6
10 7 7 4 -8 -12 16 -34 29 -27 6 3 2 -4 -9 -17 -17 -20 -17 -22 -3 -17 20 7
34 -8 17 -19 -8 -5 -9 -3 -4 6 5 8 4 11 -3 6 -6 -4 -9 -13 -5 -22 4 -10 9 -12
18 -4 16 13 40 -11 25 -26 -6 -6 0 -20 16 -37 22 -24 28 -26 42 -15 12 10 14
10 8 1 -4 -8 -2 -13 4 -13 7 0 10 -7 6 -18 -5 -15 -4 -15 6 -2 18 21 54 19 50
-3 -2 -11 2 -15 13 -11 8 3 13 10 10 14 -3 5 0 12 6 16 8 4 9 3 5 -4 -4 -7 -2
-12 5 -12 8 0 5 -9 -7 -22 -10 -13 -12 -17 -4 -11 8 7 22 13 32 13 10 0 18 5
18 10 0 6 6 9 13 8 6 -2 11 3 9 11 -3 12 0 12 11 2 12 -9 16 -9 21 1 3 7 4 2
1 -12 -3 -14 -2 -19 1 -12 5 10 9 10 22 0 10 -9 13 -9 9 -1 -4 7 0 17 10 23
17 10 17 10 -1 8 -10 -2 -20 3 -22 10 -1 7 0 8 2 3 3 -6 14 -7 29 -1 12 5 26
6 31 2 4 -4 4 -1 0 6 -4 7 -12 10 -17 7 -5 -4 -9 -1 -9 5 0 6 6 10 13 9 23 -3
37 1 37 11 0 5 -6 8 -12 6 -7 -1 -10 -1 -5 1 4 3 4 10 0 16 -3 7 3 4 15 -7 21
-18 21 -18 17 7 -3 14 1 30 9 36 12 10 14 7 11 -21 -3 -23 -1 -28 5 -17 10 17
9 37 -4 58 -7 11 -5 13 7 8 8 -3 21 1 27 9 7 8 9 14 4 14 -5 0 -2 5 6 11 13
10 13 10 -1 6 -9 -3 -16 1 -16 8 0 7 8 12 17 10 9 -2 17 3 17 10 0 8 -7 11
-16 7 -10 -4 -5 9 14 34 16 21 21 33 12 25 -11 -9 -17 -9 -17 -2 0 6 9 16 19
23 15 9 17 15 9 25 -6 7 -7 13 -4 13 4 0 2 9 -4 19 -7 14 -7 22 2 27 7 4 8 3
4 -4 -5 -8 -1 -10 9 -5 13 5 14 7 3 14 -17 11 -17 31 1 45 10 8 11 13 3 18 -6
4 -8 14 -5 23 4 9 2 14 -3 10 -6 -3 -10 5 -10 19 0 17 4 23 14 19 12 -4 12 -2
4 8 -7 8 -9 17 -5 20 3 4 2 7 -3 7 -5 0 -10 14 -11 32 -1 17 -8 35 -15 39 -9
6 -8 10 5 15 17 6 17 7 0 27 -10 11 -13 17 -6 14 8 -5 11 0 10 12 -1 16 -4 18
-22 9 -17 -9 -18 -9 -9 3 19 24 14 50 -9 43 -14 -4 -18 -2 -14 7 2 8 10 13 16
12 6 -2 11 2 11 7 0 9 -13 14 -31 12 -3 -1 -6 5 -6 13 0 7 5 11 11 9 15 -6 19
76 5 92 -7 8 -6 15 2 20 7 4 9 3 5 -4 -3 -6 -2 -13 4 -17 5 -3 10 -1 10 6 0 8
5 8 18 -2 16 -13 16 -12 1 6 -17 21 -22 58 -7 49 5 -3 5 -11 2 -17 -5 -9 -3
-9 6 0 11 10 11 15 -1 29 -14 18 -14 21 2 41 7 7 6 13 0 18 -14 8 10 35 24 27
6 -3 1 5 -9 17 -14 15 -15 20 -5 16 10 -4 15 1 16 15 1 11 -2 18 -6 16 -4 -3
-8 1 -8 9 0 8 4 12 8 10 3 -3 9 4 12 15 3 12 1 18 -5 14 -6 -4 -8 2 -3 16 6
17 4 21 -6 15 -8 -5 -6 1 5 13 16 18 16 22 4 27 -8 3 -15 13 -15 21 0 10 4 11
11 4 5 -5 14 -10 19 -10 11 0 -14 25 -33 33 -11 4 -9 6 5 6 17 1 17 3 5 11
-13 9 -13 10 0 10 13 0 13 2 0 9 -8 6 -18 7 -24 4 -5 -3 -6 -1 -2 5 4 7 14 12
22 12 8 0 14 4 14 9 0 6 -9 8 -20 6 -19 -4 -19 -3 -3 23 17 26 17 27 -2 12
-17 -14 -18 -13 -12 2 3 10 2 20 -4 24 -5 3 -7 15 -3 26 4 14 2 18 -5 14 -10
-7 -16 6 -12 27 1 4 -4 17 -10 29 -9 16 -8 23 2 30 10 7 9 8 -5 4 -12 -4 -25
1 -36 14 -9 11 -21 16 -25 12 -5 -4 -5 -2 -2 4 6 11 -40 62 -50 56 -2 -2 -7
-1 -10 1 -4 5 23 2 37 -3 3 -1 9 -2 13 -1 5 1 5 -4 1 -10 -5 -8 -3 -9 6 -4 8
5 11 4 7 -2 -4 -6 2 -18 12 -27 15 -14 19 -15 24 -3 3 9 -1 14 -11 13 -9 0
-17 4 -17 11 0 15 -13 28 -28 28 -7 0 -11 8 -11 18 2 13 -1 15 -11 7 -23 -19
-52 3 -45 35 1 6 -2 7 -5 3 -4 -4 -17 -3 -29 3 -18 9 -18 8 3 -9z m-111 -27
c-3 -3 -9 2 -12 12 -6 14 -5 15 5 6 7 -7 10 -15 7 -18z m-78 -25 c0 -5 -2 -10
-4 -10 -3 0 -8 5 -11 10 -3 6 -1 10 4 10 6 0 11 -4 11 -10z m358 -135 c-3 -3
-9 2 -12 12 -6 14 -5 15 5 6 7 -7 10 -15 7 -18z m-171 -162 c0 -7 -5 -12 -11
-10 -15 5 -18 24 -3 24 8 0 14 -6 14 -14z m-127 -17 c0 -3 -4 -8 -10 -11 -5
-3 -10 -1 -10 4 0 6 5 11 10 11 6 0 10 -2 10 -4z m310 -497 c0 -5 -4 -9 -8 -9
-5 0 -9 7 -9 15 0 8 4 12 9 9 4 -3 8 -9 8 -15z m-277 -154 c-3 -9 -8 -14 -10
-11 -3 3 -2 9 2 15 9 16 15 13 8 -4z m327 -365 c0 -5 -5 -10 -11 -10 -5 0 -7
5 -4 10 3 6 8 10 11 10 2 0 4 -4 4 -10z m-280 -10 c8 -5 11 -10 5 -10 -5 0
-17 5 -25 10 -8 5 -10 10 -5 10 6 0 17 -5 25 -10z m240 -145 c0 -12 -19 -12
-23 0 -4 9 -1 12 9 8 7 -3 14 -7 14 -8z m-416 -111 c3 -8 10 -13 14 -10 5 3 9
-1 9 -9 0 -19 1 -19 -27 10 -13 14 -19 25 -13 25 6 0 14 -7 17 -16z"/>
<path d="M4866 3718 c3 -5 10 -6 15 -3 13 9 11 12 -6 12 -8 0 -12 -4 -9 -9z"/>
<path d="M3940 3641 c0 -6 4 -13 10 -16 6 -3 7 1 4 9 -7 18 -14 21 -14 7z"/>
<path d="M4546 3634 c-11 -7 -18 -16 -15 -18 2 -2 13 2 23 10 11 7 18 16 15
18 -2 2 -13 -2 -23 -10z"/>
<path d="M4505 3570 c3 -6 3 -15 -1 -21 -5 -8 -9 -8 -14 1 -5 8 -9 7 -13 -4
-10 -26 9 -27 32 -2 19 20 20 24 6 30 -9 3 -13 2 -10 -4z"/>
<path d="M1375 3520 c3 -5 8 -10 11 -10 2 0 4 5 4 10 0 6 -5 10 -11 10 -5 0
-7 -4 -4 -10z"/>
<path d="M1827 3515 c-4 -8 -3 -16 1 -19 4 -3 9 4 9 15 2 23 -3 25 -10 4z"/>
<path d="M3898 3503 c7 -3 16 -2 19 1 4 3 -2 6 -13 5 -11 0 -14 -3 -6 -6z"/>
<path d="M1386 3492 c-3 -5 1 -15 8 -21 11 -10 14 -9 12 3 -3 21 -13 29 -20
18z"/>
<path d="M1499 3453 c-1 -5 -1 -11 0 -15 0 -5 -4 -8 -10 -8 -5 0 -7 -4 -4 -10
3 -5 -3 -10 -15 -10 -19 0 -20 -2 -6 -15 15 -16 11 -49 -5 -39 -5 3 -9 0 -9
-5 0 -6 5 -11 10 -11 6 0 10 -5 10 -11 0 -5 -4 -8 -8 -5 -5 3 -9 -1 -9 -9 0
-8 4 -12 9 -9 10 6 6 -26 -7 -46 -8 -13 -7 -13 8 -1 9 7 15 17 12 20 -2 4 2 8
9 8 8 0 12 -10 10 -29 -3 -26 -2 -28 12 -14 8 9 20 16 25 16 5 0 9 5 9 11 0 5
-5 7 -12 3 -7 -4 -8 -3 -4 4 4 7 13 12 21 12 8 0 17 5 21 12 4 7 3 8 -4 4 -7
-4 -12 -3 -12 3 0 5 6 12 13 14 8 4 8 6 -2 6 -11 1 -10 5 5 16 14 11 15 14 3
9 -10 -3 -20 0 -25 7 -4 7 -3 10 4 5 6 -3 13 -2 16 3 3 5 -1 11 -9 15 -8 3
-12 12 -9 21 3 8 1 15 -5 15 -6 0 -8 7 -5 15 4 8 1 15 -6 15 -6 0 -8 -5 -4
-11 4 -7 1 -10 -7 -7 -8 3 -13 11 -11 17 1 6 0 11 -3 11 -3 0 -6 -3 -6 -7z"/>
<path d="M1390 3439 c0 -5 5 -7 10 -4 6 3 10 8 10 11 0 2 -4 4 -10 4 -5 0 -10
-5 -10 -11z"/>
<path d="M1753 3411 c-12 -11 -24 -17 -29 -13 -4 4 -3 0 1 -8 13 -22 13 -50 1
-50 -6 0 -4 -5 4 -10 13 -9 13 -10 0 -11 -10 0 -8 -3 5 -9 11 -5 14 -9 8 -9
-19 -1 -16 -31 3 -31 8 0 13 -4 9 -9 -3 -5 -1 -13 5 -16 6 -4 9 -1 8 6 -3 12
2 14 34 18 7 0 4 7 -7 14 -14 11 -15 16 -5 22 8 5 11 4 7 -2 -3 -5 0 -10 8
-10 10 0 12 4 5 12 -6 7 -5 16 3 25 10 12 9 12 -5 2 -12 -10 -18 -10 -24 -1
-5 8 -3 9 6 4 10 -6 12 -4 7 9 -4 10 -3 15 3 11 6 -3 10 -1 10 4 0 11 -4 12
-39 15 -11 0 -23 5 -28 10 -5 5 -2 6 6 1 9 -5 12 -4 7 3 -3 6 -1 14 5 18 7 4
9 3 5 -4 -3 -6 -2 -13 3 -16 5 -3 11 1 15 9 3 8 1 15 -5 15 -6 0 -7 5 -4 10
10 16 1 12 -22 -9z m17 -131 c0 -5 -7 -7 -15 -4 -8 4 -15 8 -15 10 0 2 7 4 15
4 8 0 15 -4 15 -10z"/>
<path d="M4436 3418 c3 -5 10 -6 15 -3 13 9 11 12 -6 12 -8 0 -12 -4 -9 -9z"/>
<path d="M1560 3400 c-9 -6 -10 -10 -3 -10 6 0 15 5 18 10 8 12 4 12 -15 0z"/>
<path d="M1450 3380 c0 -5 5 -10 11 -10 5 0 7 5 4 10 -3 6 -8 10 -11 10 -2 0
-4 -4 -4 -10z"/>
<path d="M4853 3331 c0 -11 5 -18 9 -15 4 3 5 11 1 19 -7 21 -12 19 -10 -4z"/>
<path d="M3886 3313 c-6 -14 -5 -15 5 -6 7 7 10 15 7 18 -3 3 -9 -2 -12 -12z"/>
<path d="M4570 3300 c0 -5 5 -10 11 -10 5 0 7 5 4 10 -3 6 -8 10 -11 10 -2 0
-4 -4 -4 -10z"/>
<path d="M1249 3233 c-13 -16 -12 -17 4 -4 9 7 17 15 17 17 0 8 -8 3 -21 -13z"/>
<path d="M1535 3240 c3 -5 8 -10 11 -10 2 0 4 5 4 10 0 6 -5 10 -11 10 -5 0
-7 -4 -4 -10z"/>
<path d="M4795 3100 c3 -5 8 -10 11 -10 2 0 4 5 4 10 0 6 -5 10 -11 10 -5 0
-7 -4 -4 -10z"/>
<path d="M1650 3078 c0 -5 4 -7 9 -3 5 3 12 1 15 -4 4 -5 -5 -8 -19 -6 -14 1
-25 -2 -25 -6 0 -5 5 -9 11 -9 5 0 7 -5 4 -11 -4 -6 -13 -8 -21 -5 -8 3 -11 0
-8 -9 3 -8 13 -11 22 -8 15 4 15 3 2 -6 -8 -6 -24 -8 -35 -6 -17 4 -16 3 3 -6
12 -7 22 -16 22 -21 0 -5 -4 -7 -9 -4 -4 3 -6 -6 -3 -20 2 -14 10 -23 17 -21
6 3 12 -1 12 -8 0 -7 -8 -12 -18 -10 -20 4 -21 -12 -1 -33 7 -8 10 -18 7 -23
-4 -5 1 -9 10 -9 14 0 14 3 -1 28 l-16 27 20 -25 c15 -18 18 -28 10 -37 -6 -7
-7 -13 -2 -14 5 0 17 -2 26 -4 10 -2 15 2 12 10 -3 7 10 25 28 40 19 15 25 24
14 21 -16 -5 -17 -4 -7 8 7 8 19 12 27 9 8 -3 14 0 14 6 0 6 -3 10 -7 10 -21
-3 -34 2 -28 11 4 6 12 7 18 4 7 -4 9 -4 5 1 -4 4 -2 15 5 23 8 11 8 14 0 9
-6 -4 -13 -4 -16 0 -2 5 -2 2 0 -5 1 -7 -2 -10 -7 -7 -17 10 -11 25 13 35 18
7 19 9 5 11 -34 3 -36 4 -45 13 -4 5 -3 6 3 3 14 -8 25 15 15 32 -4 6 -15 9
-24 5 -12 -4 -16 -2 -12 7 3 9 -3 14 -20 15 -14 1 -25 -2 -25 -8z"/>
<path d="M5053 3076 c3 -7 0 -19 -6 -25 -9 -9 -8 -11 5 -6 17 7 21 45 5 45 -5
0 -7 -6 -4 -14z"/>
<path d="M3786 2978 c3 -5 10 -6 15 -3 13 9 11 12 -6 12 -8 0 -12 -4 -9 -9z"/>
<path d="M1709 2854 c-10 -13 6 -32 18 -20 4 3 1 6 -6 6 -7 0 -9 5 -6 10 4 6
10 8 15 5 5 -3 11 -2 14 3 8 14 -23 10 -35 -4z"/>
<path d="M3756 2831 c-4 -5 -2 -12 3 -15 5 -4 12 -2 15 3 4 5 2 12 -3 15 -5 4
-12 2 -15 -3z"/>
<path d="M1325 2779 c-4 -6 -4 -13 -1 -16 3 -4 6 -1 6 6 0 7 5 9 12 5 7 -4 8
-3 4 4 -9 15 -13 15 -21 1z"/>
<path d="M1395 2780 c-3 -5 -1 -10 4 -10 6 0 11 5 11 10 0 6 -2 10 -4 10 -3 0
-8 -4 -11 -10z"/>
<path d="M1255 2741 c-6 -11 13 -26 22 -17 4 3 1 6 -6 6 -7 0 -9 5 -6 10 3 6
4 10 1 10 -3 0 -7 -4 -11 -9z"/>
<path d="M45 2711 c-3 -5 -2 -12 3 -15 5 -3 9 1 9 9 0 17 -3 19 -12 6z"/>
<path d="M1563 2693 c10 -17 -11 -27 -28 -13 -9 7 -15 8 -20 0 -6 -10 -5 -11
14 -14 5 0 12 -4 16 -8 4 -4 -8 -5 -25 -3 -31 4 -32 4 -14 -11 10 -9 14 -13 9
-11 -6 3 -19 -2 -30 -10 -16 -13 -17 -15 -2 -10 20 7 21 3 6 -24 -5 -11 -14
-17 -19 -14 -6 3 -7 -1 -3 -10 5 -13 7 -14 14 -3 11 16 6 -17 -6 -46 -5 -12
-3 -21 6 -27 12 -7 12 -9 -1 -9 -12 -1 -11 -3 3 -11 17 -10 17 -12 1 -37 -16
-25 -16 -26 0 -13 12 10 20 11 27 4 8 -8 7 -13 -2 -18 -8 -6 -10 -4 -4 6 8 12
6 12 -8 0 -23 -19 -22 -20 15 -16 29 4 30 3 12 -10 -19 -13 -19 -14 1 -11 11
2 27 0 36 -5 12 -6 21 -3 30 8 12 14 12 16 0 8 -10 -6 -12 -4 -7 4 5 7 14 10
22 7 8 -3 14 -1 14 5 0 6 5 7 12 3 7 -4 8 -3 4 5 -4 6 -11 9 -16 6 -5 -3 -12
-1 -15 5 -4 6 -3 10 2 9 20 -4 27 2 13 12 -12 9 -10 10 8 6 17 -4 21 -2 14 6
-5 7 -12 21 -16 31 -7 20 -7 20 16 0 13 -11 18 -12 10 -3 -6 9 -9 19 -5 22 3
4 1 7 -5 7 -7 0 -12 8 -12 18 0 14 2 15 10 2 8 -12 9 -10 7 7 -3 25 -17 44
-17 24 0 -7 -5 -9 -11 -5 -8 4 -7 9 2 15 8 5 11 9 7 9 -4 0 -4 11 1 23 7 18 6
24 -4 24 -8 0 -12 -4 -9 -9 9 -15 -3 -8 -17 9 -10 11 -10 14 -1 9 7 -4 12 -1
12 9 0 12 -5 15 -22 9 -20 -6 -21 -5 -10 8 10 13 9 18 -5 29 -9 8 -14 9 -10 2z"/>
<path d="M5056 2667 c3 -10 9 -15 12 -12 3 3 0 11 -7 18 -10 9 -11 8 -5 -6z"/>
<path d="M2357 2587 c-3 -8 1 -14 8 -14 7 0 11 6 8 14 -3 7 -6 13 -8 13 -2 0
-5 -6 -8 -13z"/>
<path d="M1630 2586 c0 -2 7 -7 16 -10 8 -3 12 -2 9 4 -6 10 -25 14 -25 6z"/>
<path d="M3483 2489 c-2 -23 3 -25 10 -4 4 8 3 16 -1 19 -4 3 -9 -4 -9 -15z"/>
<path d="M1315 2480 c3 -5 11 -10 16 -10 6 0 7 5 4 10 -3 6 -11 10 -16 10 -6
0 -7 -4 -4 -10z"/>
<path d="M1715 2463 c1 -13 -4 -27 -12 -32 -13 -7 -13 -9 1 -14 11 -5 15 -3
10 5 -4 6 -3 8 4 4 10 -6 10 -19 -1 -56 -2 -8 -2 -12 0 -7 10 16 24 6 18 -13
-4 -12 -2 -20 5 -20 6 0 8 5 4 12 -5 7 -1 9 12 6 17 -4 19 0 19 34 0 35 1 37
13 21 13 -16 13 -16 7 7 -7 23 -7 24 11 10 18 -14 18 -14 0 8 -20 23 -32 30
-20 10 4 -7 3 -8 -5 -4 -9 6 -9 11 0 22 9 11 9 14 0 14 -7 0 -9 5 -6 10 4 7
-6 10 -28 8 -30 -2 -34 -5 -32 -25z m35 13 c0 -2 -7 -7 -16 -10 -8 -3 -12 -2
-9 4 6 10 25 14 25 6z"/>
<path d="M1468 2453 c7 -3 16 -2 19 1 4 3 -2 6 -13 5 -11 0 -14 -3 -6 -6z"/>
<path d="M4491 2403 c-1 -17 16 -25 25 -12 4 7 3 9 -4 5 -5 -3 -13 0 -15 6 -4
9 -6 10 -6 1z"/>
<path d="M4707 2369 c7 -7 15 -10 18 -7 3 3 -2 9 -12 12 -14 6 -15 5 -6 -5z"/>
<path d="M1536 2362 c-2 -4 -1 -14 5 -22 6 -11 9 -12 9 -2 0 8 5 10 13 6 8 -5
8 -2 -2 9 -15 19 -18 20 -25 9z"/>
<path d="M1780 2366 c0 -2 7 -6 15 -10 8 -3 15 -1 15 4 0 6 -7 10 -15 10 -8 0
-15 -2 -15 -4z"/>
<path d="M3475 2329 c0 -29 9 -37 20 -20 3 5 1 12 -5 16 -6 4 -8 10 -5 15 3 5
2 11 -3 14 -4 2 -8 -9 -7 -25z"/>
<path d="M3800 2332 c0 -6 5 -14 10 -17 6 -4 7 -11 4 -17 -4 -7 -2 -8 5 -4 9
6 9 12 -1 24 -7 10 -14 19 -15 21 -2 2 -3 -1 -3 -7z"/>
<path d="M1353 2235 c0 -8 4 -12 9 -9 5 3 6 10 3 15 -9 13 -12 11 -12 -6z"/>
<path d="M1596 2208 c3 -5 9 -6 13 -4 4 3 8 -1 8 -9 0 -10 -5 -11 -17 -5 -14
7 -16 3 -17 -31 0 -26 -7 -45 -19 -55 -11 -9 -13 -13 -6 -9 6 3 12 1 12 -5 0
-6 5 -8 12 -4 7 4 8 3 4 -5 -4 -6 -12 -8 -18 -5 -7 5 -7 1 0 -12 8 -14 6 -21
-6 -32 -10 -7 -12 -11 -5 -7 15 7 63 -22 63 -39 0 -6 -5 -4 -10 4 -5 8 -10 11
-10 6 0 -5 -6 -5 -13 0 -7 5 -5 1 6 -8 10 -10 16 -23 12 -30 -4 -7 3 -2 14 12
l20 25 -4 -24 c-2 -13 -1 -20 3 -17 7 8 8 13 11 42 1 11 7 14 24 9 21 -6 21
-6 3 9 -11 9 -15 16 -9 16 6 0 10 11 9 24 -2 18 1 23 12 19 10 -4 13 -1 10 8
-3 8 -11 13 -17 11 -7 -1 -10 2 -6 7 3 6 11 9 18 7 7 -1 9 -1 4 1 -4 3 -5 8
-2 13 3 5 -6 17 -19 27 -22 17 -22 20 -8 31 16 10 16 11 0 11 -10 1 -18 7 -18
14 0 7 -13 12 -29 12 -16 1 -27 -3 -25 -7z"/>
<path d="M3867 2199 c4 -13 8 -18 11 -10 2 7 -1 18 -6 23 -8 8 -9 4 -5 -13z"/>
<path d="M4495 2200 c3 -5 11 -10 16 -10 6 0 7 5 4 10 -3 6 -11 10 -16 10 -6
0 -7 -4 -4 -10z"/>
<path d="M1675 2160 c3 -5 8 -10 11 -10 2 0 4 5 4 10 0 6 -5 10 -11 10 -5 0
-7 -4 -4 -10z"/>
<path d="M1555 2140 c-3 -5 -2 -10 4 -10 5 0 13 5 16 10 3 6 2 10 -4 10 -5 0
-13 -4 -16 -10z"/>
<path d="M166 2127 c3 -10 9 -15 12 -12 3 3 0 11 -7 18 -10 9 -11 8 -5 -6z"/>
<path d="M1390 2121 c0 -6 -9 -8 -20 -6 -12 2 -18 0 -15 -6 4 -5 11 -7 16 -4
5 4 9 1 9 -4 0 -6 -7 -11 -15 -11 -8 0 -15 -4 -15 -10 0 -5 6 -10 13 -10 8 0
8 -3 -2 -9 -11 -7 -12 -13 -4 -23 6 -7 8 -25 6 -40 -2 -16 1 -28 7 -28 6 0 9
4 5 9 -3 5 -1 12 4 15 11 7 9 -13 -3 -32 -9 -15 -2 -25 19 -28 8 -1 13 2 9 7
-3 5 -10 7 -15 4 -5 -4 -9 -2 -9 3 0 6 7 12 15 16 8 3 14 11 13 17 -2 6 4 14
12 16 13 4 13 3 0 -6 -8 -6 -10 -11 -4 -11 19 0 23 11 14 35 -7 19 -5 25 8 28
12 3 10 5 -6 6 -13 0 -21 5 -17 11 3 5 13 7 23 4 11 -4 10 -1 -4 8 -12 7 -19
19 -17 26 3 8 -1 10 -11 6 -12 -5 -15 -2 -10 10 3 9 3 16 0 16 -3 0 -6 -4 -6
-9z"/>
<path d="M3895 2120 c3 -5 8 -10 11 -10 2 0 4 5 4 10 0 6 -5 10 -11 10 -5 0
-7 -4 -4 -10z"/>
<path d="M3951 2084 c0 -11 3 -14 6 -6 3 7 2 16 -1 19 -3 4 -6 -2 -5 -13z"/>
<path d="M3715 2057 c-11 -7 -39 -13 -62 -12 -24 1 -43 -2 -43 -6 0 -4 12 -6
28 -5 15 2 32 -1 39 -6 7 -5 14 -5 17 1 4 6 12 9 19 7 7 -1 8 -1 3 2 -5 3 2
11 15 18 13 7 19 13 14 14 -6 0 -19 -6 -30 -13z"/>
<path d="M4160 2055 c-7 -8 -16 -12 -21 -9 -5 3 -9 1 -9 -5 0 -5 9 -9 19 -8
11 0 18 4 15 8 -2 4 2 9 8 12 7 2 10 7 7 11 -3 4 -12 0 -19 -9z"/>
<path d="M1685 2050 c-3 -6 1 -7 9 -4 18 7 21 14 7 14 -6 0 -13 -4 -16 -10z"/>
<path d="M3448 2039 c19 -22 23 -24 20 -6 -2 6 4 11 12 9 8 -2 12 0 8 4 -5 4
-19 8 -32 10 -23 2 -24 1 -8 -17z"/>
<path d="M3500 2040 c0 -5 5 -10 11 -10 5 0 7 5 4 10 -3 6 -8 10 -11 10 -2 0
-4 -4 -4 -10z"/>
<path d="M4190 2039 c0 -5 5 -7 10 -4 6 3 10 8 10 11 0 2 -4 4 -10 4 -5 0 -10
-5 -10 -11z"/>
<path d="M3536 2027 c3 -10 9 -15 12 -12 3 3 0 11 -7 18 -10 9 -11 8 -5 -6z"/>
<path d="M4680 2030 c-9 -6 -10 -10 -3 -10 6 0 15 5 18 10 8 12 4 12 -15 0z"/>
<path d="M1206 2014 c-5 -14 -4 -15 9 -4 17 14 19 20 6 20 -5 0 -12 -7 -15
-16z"/>
<path d="M1337 1990 c-3 -11 -3 -20 -1 -20 2 0 8 9 14 20 6 11 7 20 2 20 -6 0
-12 -9 -15 -20z"/>
<path d="M4687 1999 c7 -7 15 -10 18 -7 3 3 -2 9 -12 12 -14 6 -15 5 -6 -5z"/>
<path d="M220 1982 c0 -5 7 -9 15 -9 8 0 12 4 9 9 -3 4 -9 8 -15 8 -5 0 -9 -4
-9 -8z"/>
<path d="M1410 1959 c0 -5 5 -7 10 -4 6 3 10 8 10 11 0 2 -4 4 -10 4 -5 0 -10
-5 -10 -11z"/>
<path d="M1956 1887 c3 -10 9 -15 12 -12 3 3 0 11 -7 18 -10 9 -11 8 -5 -6z"/>
<path d="M3226 1793 c-6 -14 -5 -15 5 -6 7 7 10 15 7 18 -3 3 -9 -2 -12 -12z"/>
<path d="M3230 1760 c0 -5 5 -10 11 -10 5 0 7 5 4 10 -3 6 -8 10 -11 10 -2 0
-4 -4 -4 -10z"/>
<path d="M587 1602 c4 -10 8 -11 13 -2 6 9 9 9 12 -1 3 -10 6 -9 10 2 4 11 -1
15 -17 15 -15 0 -21 -5 -18 -14z"/>
<path d="M794 1608 c-4 -5 -3 -12 0 -15 3 -4 6 0 6 8 0 11 2 12 9 1 7 -11 9
-11 14 0 6 16 -20 21 -29 6z"/>
<path d="M2003 1525 c0 -8 4 -12 9 -9 5 3 6 10 3 15 -9 13 -12 11 -12 -6z"/>
<path d="M2069 1522 c12 -22 31 -22 31 0 0 6 -3 8 -7 5 -3 -4 -13 -1 -21 6
-13 10 -14 9 -3 -11z"/>
<path d="M3220 1479 c0 -5 5 -7 10 -4 6 3 10 8 10 11 0 2 -4 4 -10 4 -5 0 -10
-5 -10 -11z"/>
<path d="M3216 1273 c-6 -14 -5 -15 5 -6 7 7 10 15 7 18 -3 3 -9 -2 -12 -12z"/>
<path d="M2396 1247 c3 -10 9 -15 12 -12 3 3 0 11 -7 18 -10 9 -11 8 -5 -6z"/>
<path d="M2570 1180 c-9 -6 -10 -10 -3 -10 6 0 15 5 18 10 8 12 4 12 -15 0z"/>
<path d="M2530 1160 c0 -5 5 -10 11 -10 5 0 7 5 4 10 -3 6 -8 10 -11 10 -2 0
-4 -4 -4 -10z"/>
<path d="M3183 1035 c0 -8 4 -12 9 -9 5 3 6 10 3 15 -9 13 -12 11 -12 -6z"/>
<path d="M3162 914 c-7 -8 -8 -14 -3 -14 10 0 25 19 20 25 -2 1 -10 -3 -17
-11z"/>
<path d="M1933 665 c0 -8 4 -12 9 -9 5 3 6 10 3 15 -9 13 -12 11 -12 -6z"/>
<path d="M1980 559 c0 -5 5 -7 10 -4 6 3 10 8 10 11 0 2 -4 4 -10 4 -5 0 -10
-5 -10 -11z"/>
<path d="M3027 529 c7 -7 15 -10 18 -7 3 3 -2 9 -12 12 -14 6 -15 5 -6 -5z"/>
<path d="M2965 440 c-3 -5 -2 -10 4 -10 5 0 13 5 16 10 3 6 2 10 -4 10 -5 0
-13 -4 -16 -10z"/>
<path d="M2807 282 c-10 -10 -17 -22 -17 -27 0 -4 9 2 20 15 11 13 20 25 20
27 0 7 -8 2 -23 -15z"/>
<path d="M2696 225 c4 -8 11 -15 16 -15 6 0 5 6 -2 15 -7 8 -14 15 -16 15 -2
0 -1 -7 2 -15z"/>
<path d="M2426 183 c-6 -14 -5 -15 5 -6 7 7 10 15 7 18 -3 3 -9 -2 -12 -12z"/>
</g>
</svg>
